<svg xmlns="http://www.w3.org/2000/svg" viewBox="0 0 553.2 553.1"><defs><style>.cls-1{fill:#f7be00;}</style></defs><g id="Layer_2" data-name="Layer 2"><g id="Layer_1-2" data-name="Layer 1"><path class="cls-1" d="M287.5,276.7a10.9,10.9,0,1,0-10.9,10.8,10.9,10.9,0,0,0,10.9-10.8"/><path class="cls-1" d="M287.5,254.1a10.9,10.9,0,1,0-10.9,10.8,10.9,10.9,0,0,0,10.9-10.8"/><path class="cls-1" d="M301.6,274.8A10.9,10.9,0,1,0,290.7,256a10.9,10.9,0,0,0,10.9,18.8"/><path class="cls-1" d="M290.7,297.4a10.9,10.9,0,0,0,14.9-4,10.8,10.8,0,0,0-4-14.8,10.7,10.7,0,0,0-14.8,3.9,10.9,10.9,0,0,0,3.9,14.9"/><path class="cls-1" d="M265.7,299.3a10.9,10.9,0,1,0,10.9-10.9,10.8,10.8,0,0,0-10.9,10.9"/><path class="cls-1" d="M251.6,278.6a10.8,10.8,0,0,0-4,14.8,10.9,10.9,0,1,0,18.9-10.9,10.8,10.8,0,0,0-14.9-3.9"/><path class="cls-1" d="M262.5,256a10.9,10.9,0,1,0,4,14.8,10.9,10.9,0,0,0-4-14.8"/><path class="cls-1" d="M287.1,231.5A10.5,10.5,0,1,0,276.6,242a10.5,10.5,0,0,0,10.5-10.5"/><path class="cls-1" d="M306.9,241.5a10.5,10.5,0,1,0-14.2,4.4,10.4,10.4,0,0,0,14.2-4.4"/><path class="cls-1" d="M319.8,259.6a10.5,10.5,0,1,0-14.6-2.6,10.5,10.5,0,0,0,14.6,2.6"/><path class="cls-1" d="M322.7,281.6a10.5,10.5,0,1,0-11.6-9.1,10.4,10.4,0,0,0,11.6,9.1"/><path class="cls-1" d="M315.1,302.5a10.5,10.5,0,1,0,7.5-19.6,10.5,10.5,0,0,0-7.5,19.6"/><path class="cls-1" d="M298.7,317.5a10.5,10.5,0,1,0,.9-14.9,10.7,10.7,0,0,0-.9,14.9"/><path class="cls-1" d="M277.2,323.1a10.5,10.5,0,0,0,12.7,7.6,10.4,10.4,0,0,0,7.7-12.7,10.5,10.5,0,0,0-20.4,5.1"/><path class="cls-1" d="M255.6,318a10.5,10.5,0,1,0,12.7-7.6,10.4,10.4,0,0,0-12.7,7.6"/><path class="cls-1" d="M238.8,303.5a10.5,10.5,0,1,0,15.7,14,10.7,10.7,0,0,0-.9-14.9,10.6,10.6,0,0,0-14.8.9"/><path class="cls-1" d="M230.6,282.9a10.5,10.5,0,1,0,13.6,6.1,10.5,10.5,0,0,0-13.6-6.1"/><path class="cls-1" d="M233,260.8a10.5,10.5,0,1,0,9.2,11.7,10.5,10.5,0,0,0-9.2-11.7"/><path class="cls-1" d="M245.4,242.4a10.5,10.5,0,1,0,2.7,14.6,10.5,10.5,0,0,0-2.7-14.6"/><path class="cls-1" d="M264.9,231.8a10.5,10.5,0,1,0-4.4,14.1,10.4,10.4,0,0,0,4.4-14.1"/><path class="cls-1" d="M286.6,208.9a10,10,0,1,0-10,10,10,10,0,0,0,10-10"/><path class="cls-1" d="M308.1,215.8a10,10,0,1,0-12.7,6.2,10,10,0,0,0,12.7-6.2"/><path class="cls-1" d="M326.1,229.3A10,10,0,0,0,310.4,217a10.1,10.1,0,0,0,1.7,14.1,9.9,9.9,0,0,0,14-1.8"/><path class="cls-1" d="M338.8,248a10,10,0,0,0-10.9-16.8A10,10,0,0,0,338.8,248"/><path class="cls-1" d="M344.8,269.7a10,10,0,0,0-4.9-19.4,10,10,0,1,0,4.9,19.4"/><path class="cls-1" d="M343.4,292.2a9.8,9.8,0,0,0,10.7-9.1,10,10,0,1,0-10.7,9.1"/><path class="cls-1" d="M334.7,313.1a10,10,0,1,0-5.2-13.2,10.1,10.1,0,0,0,5.2,13.2"/><path class="cls-1" d="M319.7,329.9a10,10,0,0,0,14.1-.5,10,10,0,1,0-14.1.5"/><path class="cls-1" d="M300.1,341.1a10,10,0,0,0,17.6-9.6,10,10,0,1,0-17.6,9.6"/><path class="cls-1" d="M277.9,345.2a10,10,0,1,0,19.7-3.3,10,10,0,0,0-19.7,3.3"/><path class="cls-1" d="M255.6,341.9a10,10,0,1,0,11.5-8.2,10,10,0,0,0-11.5,8.2"/><path class="cls-1" d="M235.6,331.5a10,10,0,1,0,13.5-4,9.9,9.9,0,0,0-13.5,4"/><path class="cls-1" d="M220,315.2a10,10,0,1,0,14.1.6,10,10,0,0,0-14.1-.6"/><path class="cls-1" d="M210.5,294.7a10.1,10.1,0,0,0-5.1,13.2,9.9,9.9,0,0,0,13.1,5.2,10,10,0,0,0-8-18.4"/><path class="cls-1" d="M208.2,272.3a10,10,0,1,0,10.8,9.1,10,10,0,0,0-10.8-9.1"/><path class="cls-1" d="M213.3,250.3a10,10,0,0,0-12.1,7.3,9.9,9.9,0,0,0,7.2,12.1,10,10,0,1,0,4.9-19.4"/><path class="cls-1" d="M225.3,231.2a10,10,0,0,0-13.8,2.9,10.1,10.1,0,0,0,2.9,13.9,10,10,0,0,0,10.9-16.8"/><path class="cls-1" d="M242.9,217a10.1,10.1,0,0,0-14.1-1.7,10,10,0,1,0,14.1,1.7"/><path class="cls-1" d="M264.1,209.3a10,10,0,1,0-6.3,12.7,10,10,0,0,0,6.3-12.7"/><path class="cls-1" d="M286.1,186.3a9.5,9.5,0,0,0-19,0,9.5,9.5,0,0,0,19,0"/><path class="cls-1" d="M308.3,191.5a9.5,9.5,0,1,0-11.6,6.8,9.6,9.6,0,0,0,11.6-6.8"/><path class="cls-1" d="M328.5,202a9.5,9.5,0,1,0-12.9,3.8,9.6,9.6,0,0,0,12.9-3.8"/><path class="cls-1" d="M345.4,217.3a9.5,9.5,0,1,0-13.4.4,9.5,9.5,0,0,0,13.4-.4"/><path class="cls-1" d="M358,236.3a9.5,9.5,0,1,0-13.1-3,9.5,9.5,0,0,0,13.1,3"/><path class="cls-1" d="M365.5,257.8a9.5,9.5,0,1,0-12-6.1,9.5,9.5,0,0,0,12,6.1"/><path class="cls-1" d="M367.4,280.5a9.5,9.5,0,1,0-10.1-8.9,9.6,9.6,0,0,0,10.1,8.9"/><path class="cls-1" d="M363.6,302.9a9.5,9.5,0,1,0-7.5-11.1,9.4,9.4,0,0,0,7.5,11.1"/><path class="cls-1" d="M354.4,323.8a9.5,9.5,0,0,0,8-17.2,9.4,9.4,0,0,0-12.6,4.5,9.6,9.6,0,0,0,4.6,12.7"/><path class="cls-1" d="M340.2,341.6a9.5,9.5,0,1,0-1.3-13.4,9.6,9.6,0,0,0,1.3,13.4"/><path class="cls-1" d="M322.1,355.4a9.5,9.5,0,1,0,2.1-13.3,9.4,9.4,0,0,0-2.1,13.3"/><path class="cls-1" d="M301.1,364.2a9.5,9.5,0,1,0,5.3-12.3,9.4,9.4,0,0,0-5.3,12.3"/><path class="cls-1" d="M278.5,367.5a9.5,9.5,0,1,0,8.3-10.6,9.6,9.6,0,0,0-8.3,10.6"/><path class="cls-1" d="M255.9,365.2a9.5,9.5,0,0,0,8.2,10.6,9.6,9.6,0,0,0,10.6-8.3,9.5,9.5,0,1,0-18.8-2.3"/><path class="cls-1" d="M234.5,357.2a9.5,9.5,0,1,0,12.3-5.3,9.5,9.5,0,0,0-12.3,5.3"/><path class="cls-1" d="M215.8,344.2a9.5,9.5,0,1,0,13.3-2.1,9.6,9.6,0,0,0-13.3,2.1"/><path class="cls-1" d="M200.9,327a9.5,9.5,0,1,0,13.4,1.2,9.5,9.5,0,0,0-13.4-1.2"/><path class="cls-1" d="M190.8,306.6a9.5,9.5,0,0,0-4.6,12.6,9.5,9.5,0,1,0,17.2-8.1,9.4,9.4,0,0,0-12.6-4.5"/><path class="cls-1" d="M186,284.3a9.5,9.5,0,1,0,3.6,18.6,9.5,9.5,0,0,0-3.6-18.6"/><path class="cls-1" d="M187,261.5a9.5,9.5,0,1,0,8.9,10.1,9.6,9.6,0,0,0-8.9-10.1"/><path class="cls-1" d="M193.6,239.7a9.5,9.5,0,1,0,6.1,12,9.5,9.5,0,0,0-6.1-12"/><path class="cls-1" d="M205.4,220.2a9.5,9.5,0,0,0-13.1,2.9,9.6,9.6,0,0,0,2.9,13.2,9.5,9.5,0,0,0,10.2-16.1"/><path class="cls-1" d="M221.7,204.3a9.6,9.6,0,0,0-13.5-.4,9.5,9.5,0,1,0,13.5.4"/><path class="cls-1" d="M241.4,192.9a9.5,9.5,0,1,0-3.8,12.9,9.5,9.5,0,0,0,3.8-12.9"/><path class="cls-1" d="M263.3,186.8a9.5,9.5,0,0,0-11.5-6.9,9.5,9.5,0,1,0,4.7,18.4,9.4,9.4,0,0,0,6.8-11.5"/><path class="cls-1" d="M285.6,163.7a9,9,0,1,0-9,9,9,9,0,0,0,9-9"/><path class="cls-1" d="M308.2,167.8a9,9,0,1,0-10.7,7,9,9,0,0,0,10.7-7"/><path class="cls-1" d="M329.4,176.4a9,9,0,0,0-16.5-7.1,9,9,0,0,0,4.7,11.8,8.9,8.9,0,0,0,11.8-4.7"/><path class="cls-1" d="M348.5,189.1a9,9,0,1,0-14.7-10.3,9,9,0,1,0,14.7,10.3"/><path class="cls-1" d="M364.7,205.3A9,9,0,1,0,352,205a8.9,8.9,0,0,0,12.7.3"/><path class="cls-1" d="M377.3,224.5a9,9,0,1,0-12.4-2.8,8.9,8.9,0,0,0,12.4,2.8"/><path class="cls-1" d="M385.7,245.9a9,9,0,1,0-11.6-5.3,9,9,0,0,0,11.6,5.3"/><path class="cls-1" d="M389.7,268.5a9.1,9.1,0,0,0,7.5-10.3,9,9,0,0,0-17.8,2.7,9.2,9.2,0,0,0,10.3,7.6"/><path class="cls-1" d="M389,291.4a9,9,0,1,0-8.5-9.5,9,9,0,0,0,8.5,9.5"/><path class="cls-1" d="M383.7,313.7a9,9,0,0,0,11-6.5,9,9,0,0,0-17.4-4.5,9,9,0,0,0,6.4,11"/><path class="cls-1" d="M374.1,334.5a9,9,0,1,0-4.1-12,8.9,8.9,0,0,0,4.1,12"/><path class="cls-1" d="M360.5,352.9a8.9,8.9,0,0,0,12.6-1.6,9,9,0,0,0-1.6-12.6,9.2,9.2,0,0,0-12.7,1.6,8.9,8.9,0,0,0,1.7,12.6"/><path class="cls-1" d="M343.4,368.3A9,9,0,1,0,357,356.5a9,9,0,0,0-13.6,11.8"/><path class="cls-1" d="M323.6,379.8a9,9,0,1,0,3.5-12.2,8.9,8.9,0,0,0-3.5,12.2"/><path class="cls-1" d="M301.9,387.2a9,9,0,1,0,5.8-11.3,8.9,8.9,0,0,0-5.8,11.3"/><path class="cls-1" d="M279.1,390a9,9,0,1,0,8-9.9,9,9,0,0,0-8,9.9"/><path class="cls-1" d="M256.2,388.2a9,9,0,1,0,9.9-8.1,9,9,0,0,0-9.9,8.1"/><path class="cls-1" d="M234.2,381.8a9,9,0,1,0,11.3-5.9,8.9,8.9,0,0,0-11.3,5.9"/><path class="cls-1" d="M213.9,371.1a9,9,0,0,0,3.5,12.2,9,9,0,0,0,8.7-15.7,9,9,0,0,0-12.2,3.5"/><path class="cls-1" d="M196.2,356.5a9,9,0,1,0,12.7-.9,8.9,8.9,0,0,0-12.7.9"/><path class="cls-1" d="M181.8,338.7a9,9,0,1,0,12.6,1.6,9,9,0,0,0-12.6-1.6"/><path class="cls-1" d="M171.2,318.4a9,9,0,1,0,12,4.1,8.9,8.9,0,0,0-12-4.1"/><path class="cls-1" d="M165,296.3a9,9,0,1,0,10.9,6.4,8.8,8.8,0,0,0-10.9-6.4"/><path class="cls-1" d="M163.3,273.4a9,9,0,0,0,.9,18,9,9,0,1,0-.9-18"/><path class="cls-1" d="M166.3,250.7a9,9,0,1,0,7.5,10.2,8.9,8.9,0,0,0-7.5-10.2"/><path class="cls-1" d="M173.8,229a9,9,0,0,0-11.6,5.3,9,9,0,1,0,11.6-5.3"/><path class="cls-1" d="M185.5,209.3a9,9,0,1,0,2.9,12.4,9,9,0,0,0-2.9-12.4"/><path class="cls-1" d="M200.9,192.3a9,9,0,1,0,.3,12.7,9,9,0,0,0-.3-12.7"/><path class="cls-1" d="M219.4,178.8a9,9,0,1,0-2.2,12.5,8.9,8.9,0,0,0,2.2-12.5"/><path class="cls-1" d="M240.3,169.3a9,9,0,1,0-4.7,11.8,8.9,8.9,0,0,0,4.7-11.8"/><path class="cls-1" d="M262.7,164.2a9,9,0,1,0-7,10.6,9,9,0,0,0,7-10.6"/><path class="cls-1" d="M285.1,141.1a8.5,8.5,0,1,0-8.5,8.5,8.5,8.5,0,0,0,8.5-8.5"/><path class="cls-1" d="M307.3,144.3a8.3,8.3,0,0,0-7-9.7,8.5,8.5,0,0,0-9.8,6.9,8.6,8.6,0,0,0,7,9.8,8.4,8.4,0,0,0,9.8-7"/><path class="cls-1" d="M328.7,151.2a8.5,8.5,0,1,0-10.8,5.3,8.5,8.5,0,0,0,10.8-5.3"/><path class="cls-1" d="M348.6,161.5a8.5,8.5,0,1,0-11.5,3.4,8.5,8.5,0,0,0,11.5-3.4"/><path class="cls-1" d="M366.6,174.9a8.5,8.5,0,1,0-11.9,1.5,8.4,8.4,0,0,0,11.9-1.5"/><path class="cls-1" d="M382.1,191.1a8.5,8.5,0,1,0-11.5-12.5,8.5,8.5,0,0,0,11.5,12.5"/><path class="cls-1" d="M394.8,209.6a8.5,8.5,0,1,0-11.8-2.4,8.5,8.5,0,0,0,11.8,2.4"/><path class="cls-1" d="M404.2,230a8.6,8.6,0,0,0,4.4-11.2,8.5,8.5,0,1,0-4.4,11.2"/><path class="cls-1" d="M410.1,251.6a8.5,8.5,0,0,0,6.2-10.3,8.5,8.5,0,1,0-16.5,4.2,8.5,8.5,0,0,0,10.3,6.1"/><path class="cls-1" d="M412.4,273.9a8.4,8.4,0,0,0,7.8-9.1,8.5,8.5,0,1,0-16.9,1.4,8.4,8.4,0,0,0,9.1,7.7"/><path class="cls-1" d="M411,296.3a8.5,8.5,0,1,0-7.7-9.1,8.5,8.5,0,0,0,7.7,9.1"/><path class="cls-1" d="M406,318.2a8.5,8.5,0,1,0-6.2-10.3,8.6,8.6,0,0,0,6.2,10.3"/><path class="cls-1" d="M397.4,338.9a8.5,8.5,0,1,0,6.8-15.5,8.5,8.5,0,1,0-6.8,15.5"/><path class="cls-1" d="M385.5,357.9a8.4,8.4,0,0,0,11.7-2.4,8.5,8.5,0,0,0-2.4-11.8,8.6,8.6,0,0,0-11.8,2.5,8.3,8.3,0,0,0,2.5,11.7"/><path class="cls-1" d="M370.6,374.8a8.6,8.6,0,0,0,12-.5,8.5,8.5,0,1,0-12.5-11.5,8.5,8.5,0,0,0,.5,12"/><path class="cls-1" d="M353.2,388.9a8.5,8.5,0,1,0,1.5-11.9,8.5,8.5,0,0,0-1.5,11.9"/><path class="cls-1" d="M333.7,400a8.5,8.5,0,0,0,11.5,3.4,8.5,8.5,0,0,0-8.1-15,8.5,8.5,0,0,0-3.4,11.6"/><path class="cls-1" d="M312.6,407.7a8.5,8.5,0,1,0,5.3-10.8,8.4,8.4,0,0,0-5.3,10.8"/><path class="cls-1" d="M290.5,411.8a8.5,8.5,0,1,0,7-9.8,8.6,8.6,0,0,0-7,9.8"/><path class="cls-1" d="M268.1,412.3a8.5,8.5,0,1,0,8.5-8.5,8.5,8.5,0,0,0-8.5,8.5"/><path class="cls-1" d="M245.9,409a8.5,8.5,0,1,0,9.8-7,8.6,8.6,0,0,0-9.8,7"/><path class="cls-1" d="M224.6,402.2a8.5,8.5,0,1,0,10.7-5.3,8.4,8.4,0,0,0-10.7,5.3"/><path class="cls-1" d="M204.6,391.9a8.5,8.5,0,0,0,3.4,11.5,8.5,8.5,0,1,0,8.1-15,8.5,8.5,0,0,0-11.5,3.5"/><path class="cls-1" d="M186.6,378.5A8.5,8.5,0,1,0,200,388.9a8.4,8.4,0,0,0-1.5-11.9,8.5,8.5,0,0,0-11.9,1.5"/><path class="cls-1" d="M171.1,362.3a8.4,8.4,0,0,0-.5,12,8.6,8.6,0,0,0,12,.5,8.5,8.5,0,0,0-11.5-12.5"/><path class="cls-1" d="M158.5,343.7a8.5,8.5,0,1,0,9.2,14.2,8.3,8.3,0,0,0,2.5-11.7,8.5,8.5,0,0,0-11.7-2.5"/><path class="cls-1" d="M149,323.4a8.5,8.5,0,1,0,11.2,4.3,8.4,8.4,0,0,0-11.2-4.3"/><path class="cls-1" d="M143.1,301.7a8.5,8.5,0,1,0,10.3,6.2,8.6,8.6,0,0,0-10.3-6.2"/><path class="cls-1" d="M140.8,279.4a8.5,8.5,0,1,0,9.2,7.8,8.5,8.5,0,0,0-9.2-7.8"/><path class="cls-1" d="M142.2,257a8.5,8.5,0,0,0-9.2,7.8,8.5,8.5,0,0,0,17,1.4,8.6,8.6,0,0,0-7.8-9.2"/><path class="cls-1" d="M147.3,235.1a8.7,8.7,0,0,0-10.4,6.2,8.5,8.5,0,1,0,10.4-6.2"/><path class="cls-1" d="M155.9,214.4a8.5,8.5,0,1,0,4.3,11.2,8.5,8.5,0,0,0-4.3-11.2"/><path class="cls-1" d="M167.7,195.4a8.5,8.5,0,1,0,2.5,11.8,8.5,8.5,0,0,0-2.5-11.8"/><path class="cls-1" d="M182.6,178.6a8.5,8.5,0,0,0-11.5,12.5,8.5,8.5,0,0,0,12-.5,8.4,8.4,0,0,0-.5-12"/><path class="cls-1" d="M200,164.5a8.5,8.5,0,1,0-1.5,11.9,8.4,8.4,0,0,0,1.5-11.9"/><path class="cls-1" d="M219.6,153.4a8.5,8.5,0,1,0-3.5,11.5,8.5,8.5,0,0,0,3.5-11.5"/><path class="cls-1" d="M240.6,145.7a8.5,8.5,0,1,0-5.3,10.8,8.4,8.4,0,0,0,5.3-10.8"/><path class="cls-1" d="M262.7,141.5a8.5,8.5,0,1,0-7,9.8,8.6,8.6,0,0,0,7-9.8"/><path class="cls-1" d="M284.6,118.5a8,8,0,1,0-8,8,8,8,0,0,0,8-8"/><path class="cls-1" d="M307,121.2a7.9,7.9,0,0,0-6.7-9A8,8,0,1,0,298,128a7.9,7.9,0,0,0,9-6.8"/><path class="cls-1" d="M328.9,127.1a8,8,0,0,0-15.4-4.5,8,8,0,1,0,15.4,4.5"/><path class="cls-1" d="M349.6,136.1a8,8,0,0,0-4-10.6,7.9,7.9,0,0,0-10.5,4,8,8,0,0,0,3.9,10.6,8.1,8.1,0,0,0,10.6-4"/><path class="cls-1" d="M368.9,147.9a8,8,0,0,0-13.5-8.6,7.9,7.9,0,0,0,2.4,11,8.1,8.1,0,0,0,11.1-2.4"/><path class="cls-1" d="M386.2,162.4a8,8,0,0,0-.8-11.3,7.8,7.8,0,0,0-11.2.8,8,8,0,1,0,12,10.5"/><path class="cls-1" d="M401.4,179.1a8,8,0,1,0-11.3-.8,8,8,0,0,0,11.3.8"/><path class="cls-1" d="M414,197.9a8.1,8.1,0,0,0,2.4-11.1,7.9,7.9,0,0,0-11-2.4,8.1,8.1,0,0,0-2.4,11.1,7.9,7.9,0,0,0,11,2.4"/><path class="cls-1" d="M423.8,218.2a8,8,0,1,0-10.6-3.9,8,8,0,0,0,10.6,3.9"/><path class="cls-1" d="M430.6,239.8a8,8,0,1,0-4.5-15.4,8,8,0,0,0,4.5,15.4"/><path class="cls-1" d="M434.3,262.1a8,8,0,1,0-9-6.8,8,8,0,0,0,9,6.8"/><path class="cls-1" d="M434.8,284.7a8,8,0,1,0-8-8,8,8,0,0,0,8,8"/><path class="cls-1" d="M432.1,307.1a8,8,0,1,0-6.8-9.1,8,8,0,0,0,6.8,9.1"/><path class="cls-1" d="M426.1,328.9a8,8,0,1,0,4.5-15.3,7.9,7.9,0,0,0-9.9,5.4,8,8,0,0,0,5.4,9.9"/><path class="cls-1" d="M417.2,349.7a8,8,0,0,0,6.6-14.6,8,8,0,0,0-10.6,4,8.1,8.1,0,0,0,4,10.6"/><path class="cls-1" d="M405.4,368.9a8,8,0,1,0-2.4-11,7.9,7.9,0,0,0,2.4,11"/><path class="cls-1" d="M390.9,386.3a8,8,0,1,0-.8-11.3,8,8,0,0,0,.8,11.3"/><path class="cls-1" d="M374.2,401.5a8,8,0,1,0,12-10.5,7.8,7.8,0,0,0-11.2-.8,8,8,0,0,0-.8,11.3"/><path class="cls-1" d="M355.4,414.1a8,8,0,0,0,11.1,2.4,8.2,8.2,0,0,0,2.4-11.1,8,8,0,1,0-13.5,8.7"/><path class="cls-1" d="M335.1,423.9a7.8,7.8,0,0,0,10.5,3.9,8,8,0,1,0-10.5-3.9"/><path class="cls-1" d="M313.5,430.7a8,8,0,1,0,5.4-9.9,8,8,0,0,0-5.4,9.9"/><path class="cls-1" d="M291.2,434.4a8,8,0,1,0,15.8-2.3,7.9,7.9,0,0,0-9-6.8,8.1,8.1,0,0,0-6.8,9.1"/><path class="cls-1" d="M268.6,434.9a8,8,0,1,0,8-8,8,8,0,0,0-8,8"/><path class="cls-1" d="M246.2,432.1a8.1,8.1,0,0,0,6.8,9.1,8,8,0,0,0,9-6.8,8.1,8.1,0,0,0-6.8-9.1,8,8,0,0,0-9,6.8"/><path class="cls-1" d="M224.4,426.2a8,8,0,1,0,9.9-5.4,7.9,7.9,0,0,0-9.9,5.4"/><path class="cls-1" d="M203.6,417.2a8,8,0,1,0,10.6-3.9,8,8,0,0,0-10.6,3.9"/><path class="cls-1" d="M184.4,405.4a8.1,8.1,0,0,0,2.4,11.1,7.9,7.9,0,0,0,11-2.4,8.1,8.1,0,0,0-2.4-11.1,7.9,7.9,0,0,0-11,2.4"/><path class="cls-1" d="M167,391a8,8,0,0,0,.8,11.3,8,8,0,0,0,10.5-12.1,8,8,0,0,0-11.3.8"/><path class="cls-1" d="M151.8,374.2a8,8,0,1,0,11.3.8,8.1,8.1,0,0,0-11.3-.8"/><path class="cls-1" d="M139.2,355.5a7.9,7.9,0,0,0-2.4,11,8,8,0,1,0,2.4-11"/><path class="cls-1" d="M129.4,335.1a8,8,0,1,0,10.6,4,8,8,0,0,0-10.6-4"/><path class="cls-1" d="M122.6,313.6a8,8,0,1,0,4.5,15.3,8,8,0,0,0,5.4-9.9,7.9,7.9,0,0,0-9.9-5.4"/><path class="cls-1" d="M118.9,291.3a8,8,0,1,0,9,6.7,7.9,7.9,0,0,0-9-6.7"/><path class="cls-1" d="M118.4,268.7a8,8,0,1,0,8,8,8,8,0,0,0-8-8"/><path class="cls-1" d="M121.2,246.2a8,8,0,0,0-2.3,15.9,8,8,0,0,0,2.3-15.9"/><path class="cls-1" d="M127.1,224.4a8,8,0,1,0,5.4,10,8.1,8.1,0,0,0-5.4-10"/><path class="cls-1" d="M136,203.7a8,8,0,1,0-6.6,14.5,8,8,0,1,0,6.6-14.5"/><path class="cls-1" d="M147.9,184.4a8,8,0,1,0,2.4,11.1,8.2,8.2,0,0,0-2.4-11.1"/><path class="cls-1" d="M162.3,167a8,8,0,0,0-10.5,12.1,8,8,0,0,0,11.3-.8,8.1,8.1,0,0,0-.8-11.3"/><path class="cls-1" d="M179.1,151.9A8,8,0,1,0,167,162.4a8,8,0,0,0,12.1-10.5"/><path class="cls-1" d="M197.8,139.3a8,8,0,1,0-2.4,11,7.9,7.9,0,0,0,2.4-11"/><path class="cls-1" d="M218.2,129.5a8,8,0,0,0-14.6,6.6,8,8,0,1,0,14.6-6.6"/><path class="cls-1" d="M239.7,122.6a8,8,0,1,0-5.4,10,8,8,0,0,0,5.4-10"/><path class="cls-1" d="M262,119a8,8,0,1,0-6.8,9,8,8,0,0,0,6.8-9"/><path class="cls-1" d="M284.1,95.9a7.5,7.5,0,1,0-15,0,7.5,7.5,0,0,0,15,0"/><path class="cls-1" d="M306.7,98.2a7.4,7.4,0,0,0-6.5-8.3,7.6,7.6,0,0,0-8.4,6.5,7.5,7.5,0,0,0,14.9,1.8"/><path class="cls-1" d="M328.8,103.4a7.4,7.4,0,0,0-5.4-9.1,7.5,7.5,0,0,0-3.7,14.5,7.4,7.4,0,0,0,9.1-5.4"/><path class="cls-1" d="M350.1,111.3a7.4,7.4,0,0,0-4.2-9.7,7.5,7.5,0,0,0-5.5,13.9,7.3,7.3,0,0,0,9.7-4.2"/><path class="cls-1" d="M370.3,121.9a7.5,7.5,0,1,0-10.2,2.9,7.5,7.5,0,0,0,10.2-2.9"/><path class="cls-1" d="M388.9,134.8a7.5,7.5,0,0,0-1.6-10.5,7.6,7.6,0,0,0-10.5,1.7,7.5,7.5,0,0,0,1.7,10.5,7.4,7.4,0,0,0,10.4-1.7"/><path class="cls-1" d="M405.8,150a7.5,7.5,0,1,0-10.6.3,7.5,7.5,0,0,0,10.6-.3"/><path class="cls-1" d="M420.7,167.2a7.5,7.5,0,1,0-10.6-1,7.6,7.6,0,0,0,10.6,1"/><path class="cls-1" d="M433.3,186.1a7.4,7.4,0,0,0,2.3-10.3,7.6,7.6,0,0,0-10.4-2.3,7.4,7.4,0,0,0-2.3,10.3,7.6,7.6,0,0,0,10.4,2.3"/><path class="cls-1" d="M443.4,206.5a7.5,7.5,0,1,0-10-3.6,7.6,7.6,0,0,0,10,3.6"/><path class="cls-1" d="M450.9,227.9a7.4,7.4,0,0,0,4.8-9.4,7.5,7.5,0,0,0-14.3,4.6,7.5,7.5,0,0,0,9.5,4.8"/><path class="cls-1" d="M455.6,250.2a7.5,7.5,0,1,0-8.8-6,7.6,7.6,0,0,0,8.8,6"/><path class="cls-1" d="M457.5,272.8a7.5,7.5,0,1,0-7.9-7,7.4,7.4,0,0,0,7.9,7"/><path class="cls-1" d="M456.6,295.5a7.4,7.4,0,0,0,7.9-7,7.5,7.5,0,1,0-14.9-.9,7.4,7.4,0,0,0,7,7.9"/><path class="cls-1" d="M452.8,317.9a7.5,7.5,0,1,0-6-8.8,7.5,7.5,0,0,0,6,8.8"/><path class="cls-1" d="M446.2,339.7a7.6,7.6,0,0,0,9.5-4.8,7.5,7.5,0,1,0-9.5,4.8"/><path class="cls-1" d="M437,360.4a7.5,7.5,0,1,0-3.6-9.9,7.5,7.5,0,0,0,3.6,9.9"/><path class="cls-1" d="M425.2,379.9a7.5,7.5,0,1,0-2.3-10.4,7.6,7.6,0,0,0,2.3,10.4"/><path class="cls-1" d="M411.1,397.7a7.5,7.5,0,1,0-1-10.6,7.6,7.6,0,0,0,1,10.6"/><path class="cls-1" d="M394.9,413.6a7.5,7.5,0,0,0,10.9-10.3,7.5,7.5,0,0,0-10.9,10.3"/><path class="cls-1" d="M376.8,427.3a7.5,7.5,0,1,0,12.1-8.8,7.5,7.5,0,0,0-12.1,8.8"/><path class="cls-1" d="M357.1,438.7a7.5,7.5,0,1,0,3-10.2,7.6,7.6,0,0,0-3,10.2"/><path class="cls-1" d="M336.2,447.5a7.5,7.5,0,0,0,13.9-5.5,7.5,7.5,0,1,0-13.9,5.5"/><path class="cls-1" d="M314.3,453.6a7.3,7.3,0,0,0,9.1,5.4,7.4,7.4,0,0,0,5.4-9.1,7.5,7.5,0,1,0-14.5,3.7"/><path class="cls-1" d="M291.8,457a7.5,7.5,0,1,0,6.5-8.4,7.6,7.6,0,0,0-6.5,8.4"/><path class="cls-1" d="M269.1,457.5a7.5,7.5,0,0,0,15,0,7.5,7.5,0,0,0-15,0"/><path class="cls-1" d="M246.5,455.1a7.5,7.5,0,1,0,8.4-6.5,7.6,7.6,0,0,0-8.4,6.5"/><path class="cls-1" d="M224.4,449.9a7.5,7.5,0,0,0,5.4,9.1,7.3,7.3,0,0,0,9.1-5.4,7.5,7.5,0,1,0-14.5-3.7"/><path class="cls-1" d="M203.1,442a7.5,7.5,0,0,0,4.2,9.7,7.5,7.5,0,0,0,5.5-13.9,7.5,7.5,0,0,0-9.7,4.2"/><path class="cls-1" d="M183,431.5a7.5,7.5,0,1,0,10.1-3,7.4,7.4,0,0,0-10.1,3"/><path class="cls-1" d="M164.3,418.5a7.5,7.5,0,1,0,12.1,8.8,7.5,7.5,0,0,0-12.1-8.8"/><path class="cls-1" d="M147.4,403.3a7.5,7.5,0,0,0,.3,10.6A7.5,7.5,0,0,0,158,403a7.5,7.5,0,0,0-10.6.3"/><path class="cls-1" d="M132.5,386.1a7.5,7.5,0,1,0,10.6,1,7.6,7.6,0,0,0-10.6-1"/><path class="cls-1" d="M120,367.2a7.5,7.5,0,1,0,10.3,2.3,7.5,7.5,0,0,0-10.3-2.3"/><path class="cls-1" d="M109.8,346.9a7.5,7.5,0,1,0,10,3.6,7.4,7.4,0,0,0-10-3.6"/><path class="cls-1" d="M102.4,325.4a7.5,7.5,0,1,0,9.4,4.8,7.5,7.5,0,0,0-9.4-4.8"/><path class="cls-1" d="M97.6,303.2a7.5,7.5,0,0,0-5.9,8.8,7.4,7.4,0,0,0,8.7,5.9,7.5,7.5,0,1,0-2.8-14.7"/><path class="cls-1" d="M95.7,280.5a7.5,7.5,0,1,0,8,7.1,7.7,7.7,0,0,0-8-7.1"/><path class="cls-1" d="M96.7,257.8a7.5,7.5,0,1,0,7,8,7.6,7.6,0,0,0-7-8"/><path class="cls-1" d="M100.4,235.4a7.5,7.5,0,0,0-2.8,14.8,7.5,7.5,0,0,0,2.8-14.8"/><path class="cls-1" d="M107,213.7a7.6,7.6,0,0,0-9.5,4.8,7.5,7.5,0,0,0,4.9,9.4,7.4,7.4,0,0,0,9.4-4.8,7.5,7.5,0,0,0-4.8-9.4"/><path class="cls-1" d="M116.2,192.9a7.5,7.5,0,0,0-6.4,13.6,7.6,7.6,0,0,0,10-3.6,7.4,7.4,0,0,0-3.6-10"/><path class="cls-1" d="M128,173.5a7.6,7.6,0,0,0-10.4,2.3,7.5,7.5,0,1,0,10.4-2.3"/><path class="cls-1" d="M142.1,155.7a7.5,7.5,0,1,0-9.6,11.5,7.6,7.6,0,0,0,10.6-1,7.5,7.5,0,0,0-1-10.5"/><path class="cls-1" d="M158.3,139.8a7.5,7.5,0,0,0-10.6-.4,7.5,7.5,0,0,0-.3,10.6,7.5,7.5,0,0,0,10.6.3,7.3,7.3,0,0,0,.3-10.5"/><path class="cls-1" d="M176.4,126a7.5,7.5,0,1,0-12.1,8.8,7.5,7.5,0,0,0,10.5,1.7,7.6,7.6,0,0,0,1.6-10.5"/><path class="cls-1" d="M196.1,114.6a7.5,7.5,0,1,0-13.1,7.3,7.5,7.5,0,0,0,13.1-7.3"/><path class="cls-1" d="M217,105.8a7.5,7.5,0,1,0-13.9,5.5,7.5,7.5,0,0,0,13.9-5.5"/><path class="cls-1" d="M238.9,99.7a7.5,7.5,0,0,0-14.5,3.7,7.4,7.4,0,0,0,9.1,5.4,7.5,7.5,0,0,0,5.4-9.1"/><path class="cls-1" d="M261.4,96.4a7.5,7.5,0,0,0-8.4-6.5,7.5,7.5,0,1,0,8.4,6.5"/><path class="cls-1" d="M283.6,73.3a7,7,0,0,0-14,0,7,7,0,1,0,14,0"/><path class="cls-1" d="M305.9,75.3a6.9,6.9,0,0,0-6.1-7.7,7,7,0,0,0-7.8,6.2,7.1,7.1,0,0,0,6.2,7.7,7,7,0,0,0,7.7-6.2"/><path class="cls-1" d="M327.9,79.7a7,7,0,1,0-8.3,5.3,6.9,6.9,0,0,0,8.3-5.3"/><path class="cls-1" d="M349.3,86.6a7,7,0,1,0-8.9,4.3,7,7,0,0,0,8.9-4.3"/><path class="cls-1" d="M369.7,95.7a6.9,6.9,0,0,0-3.3-9.3,7,7,0,1,0,3.3,9.3"/><path class="cls-1" d="M389.1,107.1a7,7,0,1,0-11.9-7.4,7,7,0,1,0,11.9,7.4"/><path class="cls-1" d="M407.1,120.5a7,7,0,0,0-1.3-9.8,6.9,6.9,0,0,0-9.8,1.2,7,7,0,0,0,1.2,9.8,7.1,7.1,0,0,0,9.9-1.2"/><path class="cls-1" d="M423.4,135.8a7,7,0,1,0-9.8.1,7,7,0,0,0,9.8-.1"/><path class="cls-1" d="M438.1,152.8a7.1,7.1,0,0,0,.9-9.9,6.9,6.9,0,0,0-9.8-.9,7,7,0,0,0-1,9.8,7.1,7.1,0,0,0,9.9,1"/><path class="cls-1" d="M450.7,171.3a7.1,7.1,0,0,0,2-9.7,7,7,0,0,0-11.7,7.7,7.1,7.1,0,0,0,9.7,2"/><path class="cls-1" d="M461.2,191.1a7,7,0,1,0-6.3-12.5,7,7,0,0,0,6.3,12.5"/><path class="cls-1" d="M469.5,211.9a6.9,6.9,0,0,0,4.1-9,7,7,0,0,0-9-4.1,7.1,7.1,0,0,0-4.1,9,7,7,0,0,0,9,4.1"/><path class="cls-1" d="M475.5,233.5a7,7,0,1,0-3.4-13.5,7,7,0,1,0,3.4,13.5"/><path class="cls-1" d="M479,255.7a7,7,0,1,0-7.9-6,7.1,7.1,0,0,0,7.9,6"/><path class="cls-1" d="M480.1,278.1a7,7,0,1,0-7.2-6.8,7,7,0,0,0,7.2,6.8"/><path class="cls-1" d="M478.7,300.4a6.9,6.9,0,0,0,7.6-6.4,7,7,0,1,0-7.6,6.4"/><path class="cls-1" d="M474.9,322.5a7,7,0,1,0-5.5-8.2,6.9,6.9,0,0,0,5.5,8.2"/><path class="cls-1" d="M468.6,344.1a7.1,7.1,0,0,0,8.8-4.6,7,7,0,1,0-8.8,4.6"/><path class="cls-1" d="M460.1,364.8a7,7,0,0,0,5.6-12.8,7,7,0,1,0-5.6,12.8"/><path class="cls-1" d="M449.3,384.4a6.9,6.9,0,0,0,9.5-2.5,7,7,0,0,0-2.6-9.6,7,7,0,0,0-6.9,12.1"/><path class="cls-1" d="M436.4,402.8a7,7,0,0,0,8.2-11.3,7,7,0,0,0-8.2,11.3"/><path class="cls-1" d="M421.5,419.6a7,7,0,0,0,9.5-10.3,7,7,0,0,0-9.9.4,7.1,7.1,0,0,0,.4,9.9"/><path class="cls-1" d="M404.9,434.6a7,7,0,1,0,.7-9.8,6.9,6.9,0,0,0-.7,9.8"/><path class="cls-1" d="M386.8,447.8a6.9,6.9,0,0,0,9.7,1.8,7.1,7.1,0,0,0,1.8-9.8,7.1,7.1,0,0,0-9.8-1.7,6.9,6.9,0,0,0-1.7,9.7"/><path class="cls-1" d="M367.3,458.9a6.9,6.9,0,0,0,9.4,2.8,7,7,0,1,0-6.6-12.3,6.9,6.9,0,0,0-2.8,9.5"/><path class="cls-1" d="M346.7,467.7a7,7,0,0,0,9.1,3.9,6.9,6.9,0,0,0,3.8-9.1,7,7,0,1,0-12.9,5.2"/><path class="cls-1" d="M325.2,474.3a7,7,0,1,0,4.9-8.6,7,7,0,0,0-4.9,8.6"/><path class="cls-1" d="M303.2,478.4a7,7,0,0,0,8,5.8,7.2,7.2,0,0,0,5.8-8.1,7,7,0,0,0-13.8,2.3"/><path class="cls-1" d="M280.8,480.1a7,7,0,1,0,6.6-7.3,7,7,0,0,0-6.6,7.3"/><path class="cls-1" d="M258.4,479.4a7,7,0,1,0,7.4-6.6,7,7,0,0,0-7.4,6.6"/><path class="cls-1" d="M236.2,476.1a7.2,7.2,0,0,0,5.8,8.1,7,7,0,0,0,8-5.8,6.9,6.9,0,0,0-5.7-8,7,7,0,0,0-8.1,5.7"/><path class="cls-1" d="M214.5,470.5a7,7,0,0,0,4.9,8.6,7,7,0,1,0,3.8-13.4,7.1,7.1,0,0,0-8.7,4.8"/><path class="cls-1" d="M193.6,462.5a7,7,0,0,0,3.8,9.1,7.2,7.2,0,0,0,9.2-3.9,7,7,0,1,0-13-5.2"/><path class="cls-1" d="M173.7,452.2a6.9,6.9,0,0,0,2.8,9.5,7,7,0,1,0,6.6-12.3,6.9,6.9,0,0,0-9.4,2.8"/><path class="cls-1" d="M155,439.8a7,7,0,1,0,11.5,8,7,7,0,0,0-11.5-8"/><path class="cls-1" d="M137.8,425.5a6.9,6.9,0,1,0,10.5,9.1,7,7,0,0,0-.7-9.8,6.8,6.8,0,0,0-9.8.7"/><path class="cls-1" d="M122.2,409.3a7,7,0,0,0,9.5,10.3,7,7,0,1,0-9.5-10.3"/><path class="cls-1" d="M108.6,391.5a7,7,0,0,0-1.5,9.8,7.1,7.1,0,0,0,9.8,1.5,7,7,0,0,0-8.3-11.3"/><path class="cls-1" d="M97,372.3a7,7,0,1,0,7,12.1,7,7,0,0,0-7-12.1"/><path class="cls-1" d="M87.5,352a6.9,6.9,0,0,0-3.5,9.2,7,7,0,1,0,3.5-9.2"/><path class="cls-1" d="M80.4,330.7a7,7,0,1,0,8.8,4.6,7.1,7.1,0,0,0-8.8-4.6"/><path class="cls-1" d="M75.7,308.8a7,7,0,0,0-5.6,8.2,6.9,6.9,0,0,0,8.2,5.5,7,7,0,1,0-2.6-13.7"/><path class="cls-1" d="M73.3,286.5a7,7,0,0,0,1.2,13.9,7,7,0,1,0-1.2-13.9"/><path class="cls-1" d="M73.5,264.1a7,7,0,0,0-7.2,6.8,7,7,0,0,0,14,.4,7,7,0,0,0-6.8-7.2"/><path class="cls-1" d="M76.1,241.8a7.1,7.1,0,0,0-7.9,6,7,7,0,1,0,7.9-6"/><path class="cls-1" d="M81.2,220a7,7,0,1,0,5,8.5,6.9,6.9,0,0,0-5-8.5"/><path class="cls-1" d="M88.6,198.8a7,7,0,0,0-9,4.1,7,7,0,1,0,13.1,4.9,7.1,7.1,0,0,0-4.1-9"/><path class="cls-1" d="M98.3,178.6A7,7,0,1,0,92,191.1a7,7,0,0,0,6.3-12.5"/><path class="cls-1" d="M110.2,159.6a7,7,0,1,0,2,9.7,7,7,0,0,0-2-9.7"/><path class="cls-1" d="M124.1,142a7,7,0,0,0-9.9.9,7.1,7.1,0,0,0,1,9.9,7,7,0,0,0,8.9-10.8"/><path class="cls-1" d="M139.8,126a7,7,0,0,0-10,9.8,7,7,0,0,0,10-9.8"/><path class="cls-1" d="M157.2,111.9a7,7,0,1,0-1.2,9.8,7,7,0,0,0,1.2-9.8"/><path class="cls-1" d="M176.1,99.7a7,7,0,1,0-12,7.4,7,7,0,1,0,12-7.4"/><path class="cls-1" d="M196.1,89.8a7,7,0,0,0-9.3-3.4,6.9,6.9,0,0,0-3.3,9.3,7,7,0,1,0,12.6-5.9"/><path class="cls-1" d="M217.2,82a7,7,0,0,0-8.9-4.3,7,7,0,0,0,4.5,13.2,7,7,0,0,0,4.4-8.9"/><path class="cls-1" d="M239,76.7a7,7,0,1,0-5.3,8.3,7,7,0,0,0,5.3-8.3"/><path class="cls-1" d="M261.2,73.8a7,7,0,0,0-13.9,1.5,7,7,0,1,0,13.9-1.5"/><path class="cls-1" d="M283.1,50.7a6.5,6.5,0,1,0-6.5,6.5,6.5,6.5,0,0,0,6.5-6.5"/><path class="cls-1" d="M305.6,52.5a6.5,6.5,0,0,0-5.8-7.1,6.4,6.4,0,0,0-7.1,5.8,6.5,6.5,0,0,0,5.8,7.1,6.6,6.6,0,0,0,7.1-5.8"/><path class="cls-1" d="M327.8,56.5a6.5,6.5,0,1,0-7.7,5,6.5,6.5,0,0,0,7.7-5"/><path class="cls-1" d="M349.4,62.6a6.4,6.4,0,0,0-4.3-8.1,6.5,6.5,0,1,0-3.8,12.4,6.4,6.4,0,0,0,8.1-4.3"/><path class="cls-1" d="M370.4,71a6.5,6.5,0,1,0-12-5.1,6.5,6.5,0,0,0,12,5.1"/><path class="cls-1" d="M390.4,81.3A6.5,6.5,0,0,0,379,75.1a6.5,6.5,0,0,0,11.4,6.2"/><path class="cls-1" d="M409.3,93.6a6.5,6.5,0,0,0-10.8-7.3,6.5,6.5,0,0,0,10.8,7.3"/><path class="cls-1" d="M426.8,107.7a6.3,6.3,0,0,0-.8-9.1,6.4,6.4,0,0,0-9.1.8,6.5,6.5,0,0,0,.8,9.1,6.4,6.4,0,0,0,9.1-.8"/><path class="cls-1" d="M442.9,123.5a6.5,6.5,0,1,0-9.2-.1,6.5,6.5,0,0,0,9.2.1"/><path class="cls-1" d="M457.3,140.8a6.5,6.5,0,0,0,1.1-9.1,6.6,6.6,0,0,0-9.2-1,6.5,6.5,0,0,0-1,9.1,6.4,6.4,0,0,0,9.1,1"/><path class="cls-1" d="M470,159.5a6.5,6.5,0,1,0-9-1.9,6.5,6.5,0,0,0,9,1.9"/><path class="cls-1" d="M480.7,179.4a6.5,6.5,0,1,0-8.8-2.9,6.6,6.6,0,0,0,8.8,2.9"/><path class="cls-1" d="M489.3,200.2a6.6,6.6,0,0,0,3.7-8.5,6.5,6.5,0,1,0-3.7,8.5"/><path class="cls-1" d="M495.9,221.7a6.4,6.4,0,0,0,4.5-8,6.5,6.5,0,0,0-8-4.5,6.5,6.5,0,1,0,3.5,12.5"/><path class="cls-1" d="M500.3,243.8a6.5,6.5,0,0,0,5.3-7.5A6.6,6.6,0,0,0,498,231a6.5,6.5,0,0,0,2.3,12.8"/><path class="cls-1" d="M502.4,266.3a6.5,6.5,0,0,0,6-7,6.4,6.4,0,0,0-6.9-6,6.5,6.5,0,0,0-6,7,6.6,6.6,0,0,0,6.9,6"/><path class="cls-1" d="M502.4,288.8a6.5,6.5,0,0,0,.3-13,6.5,6.5,0,1,0-.3,13"/><path class="cls-1" d="M500,311.2a6.5,6.5,0,0,0,7.3-5.6,6.6,6.6,0,0,0-5.7-7.3,6.5,6.5,0,0,0-1.6,12.9"/><path class="cls-1" d="M495.5,333.3a6.5,6.5,0,1,0-4.9-7.8,6.5,6.5,0,0,0,4.9,7.8"/><path class="cls-1" d="M488.8,354.8a6.5,6.5,0,0,0,4.1-12.3,6.5,6.5,0,1,0-4.1,12.3"/><path class="cls-1" d="M479.9,375.5a6.4,6.4,0,0,0,8.6-3.2,6.5,6.5,0,1,0-8.6,3.2"/><path class="cls-1" d="M469.1,395.3a6.4,6.4,0,0,0,8.8-2.4,6.5,6.5,0,1,0-8.8,2.4"/><path class="cls-1" d="M456.3,413.9a6.5,6.5,0,1,0-1.5-9.1,6.5,6.5,0,0,0,1.5,9.1"/><path class="cls-1" d="M441.8,431.1a6.5,6.5,0,1,0-.6-9.2,6.5,6.5,0,0,0,.6,9.2"/><path class="cls-1" d="M425.6,446.7a6.4,6.4,0,0,0,9.1.4,6.5,6.5,0,1,0-8.8-9.5,6.4,6.4,0,0,0-.3,9.1"/><path class="cls-1" d="M407.9,460.7A6.4,6.4,0,0,0,417,462a6.5,6.5,0,1,0-9.1-1.3"/><path class="cls-1" d="M388.9,472.9a6.5,6.5,0,0,0,8.9,2.1,6.4,6.4,0,0,0,2.2-8.9,6.5,6.5,0,0,0-8.9-2.1,6.4,6.4,0,0,0-2.2,8.9"/><path class="cls-1" d="M368.8,483.1a6.5,6.5,0,0,0,8.7,3,6.4,6.4,0,0,0,3-8.6,6.5,6.5,0,0,0-8.7-3.1,6.6,6.6,0,0,0-3,8.7"/><path class="cls-1" d="M347.8,491.2a6.5,6.5,0,1,0,3.9-8.3,6.5,6.5,0,0,0-3.9,8.3"/><path class="cls-1" d="M326.1,497.3A6.6,6.6,0,0,0,334,502a6.5,6.5,0,1,0-7.9-4.7"/><path class="cls-1" d="M303.9,501.1a6.5,6.5,0,1,0,12.8-1.9,6.5,6.5,0,1,0-12.8,1.9"/><path class="cls-1" d="M281.4,502.7a6.5,6.5,0,1,0,6.2-6.8,6.5,6.5,0,0,0-6.2,6.8"/><path class="cls-1" d="M258.9,502.1a6.5,6.5,0,1,0,6.8-6.2,6.5,6.5,0,0,0-6.8,6.2"/><path class="cls-1" d="M236.5,499.2a6.6,6.6,0,0,0,5.5,7.4,6.5,6.5,0,1,0,1.9-12.9,6.5,6.5,0,0,0-7.4,5.5"/><path class="cls-1" d="M214.6,494.1a6.5,6.5,0,1,0,7.9-4.7,6.4,6.4,0,0,0-7.9,4.7"/><path class="cls-1" d="M193.2,486.8a6.5,6.5,0,0,0,3.9,8.3,6.4,6.4,0,0,0,8.3-3.9,6.5,6.5,0,0,0-12.2-4.4"/><path class="cls-1" d="M172.7,477.5a6.5,6.5,0,1,0,8.7-3.1,6.5,6.5,0,0,0-8.7,3.1"/><path class="cls-1" d="M153.2,466.1a6.5,6.5,0,1,0,9-2.1,6.6,6.6,0,0,0-9,2.1"/><path class="cls-1" d="M135,452.9a6.5,6.5,0,0,0,1.2,9.1,6.4,6.4,0,0,0,9.1-1.3,6.5,6.5,0,1,0-10.3-7.8"/><path class="cls-1" d="M118.1,437.9a6.6,6.6,0,0,0,.4,9.2,6.5,6.5,0,1,0-.4-9.2"/><path class="cls-1" d="M102.9,421.3a6.5,6.5,0,0,0-.6,9.2,6.6,6.6,0,0,0,9.2.6,6.5,6.5,0,0,0-8.6-9.8"/><path class="cls-1" d="M89.3,403.3a6.5,6.5,0,0,0-1.4,9.1,6.4,6.4,0,0,0,9,1.5,6.5,6.5,0,1,0-7.6-10.6"/><path class="cls-1" d="M77.7,384a6.5,6.5,0,1,0,8.8,2.4,6.4,6.4,0,0,0-8.8-2.4"/><path class="cls-1" d="M68,363.7a6.5,6.5,0,1,0,5.3,11.8A6.5,6.5,0,0,0,68,363.7"/><path class="cls-1" d="M60.3,342.5a6.5,6.5,0,0,0-4.1,8.2,6.6,6.6,0,0,0,8.3,4.1,6.5,6.5,0,0,0-4.2-12.3"/><path class="cls-1" d="M54.8,320.6a6.5,6.5,0,0,0-4.8,7.8,6.4,6.4,0,0,0,7.7,4.9,6.5,6.5,0,0,0-2.9-12.7"/><path class="cls-1" d="M51.6,298.3a6.6,6.6,0,0,0-5.7,7.3,6.5,6.5,0,0,0,7.3,5.6,6.4,6.4,0,0,0,5.6-7.2,6.5,6.5,0,0,0-7.2-5.7"/><path class="cls-1" d="M50.5,275.8a6.6,6.6,0,0,0-6.3,6.7,6.5,6.5,0,0,0,6.7,6.3,6.5,6.5,0,1,0-.4-13"/><path class="cls-1" d="M51.7,253.3a6.5,6.5,0,1,0,6,7,6.5,6.5,0,0,0-6-7"/><path class="cls-1" d="M55.2,231a6.5,6.5,0,0,0-7.5,5.3,6.4,6.4,0,0,0,5.2,7.5,6.6,6.6,0,0,0,7.6-5.2,6.6,6.6,0,0,0-5.3-7.6"/><path class="cls-1" d="M60.8,209.2a6.5,6.5,0,0,0-3.5,12.5,6.4,6.4,0,0,0,8-4.5,6.5,6.5,0,0,0-4.5-8"/><path class="cls-1" d="M68.6,188.1a6.5,6.5,0,0,0-8.4,3.6,6.5,6.5,0,1,0,12.1,4.8,6.4,6.4,0,0,0-3.7-8.4"/><path class="cls-1" d="M78.5,167.8a6.5,6.5,0,1,0-5.9,11.6,6.5,6.5,0,0,0,8.7-2.9,6.5,6.5,0,0,0-2.8-8.7"/><path class="cls-1" d="M90.3,148.6a6.6,6.6,0,0,0-9,1.9,6.5,6.5,0,0,0,2,9,6.4,6.4,0,0,0,8.9-1.9,6.5,6.5,0,0,0-1.9-9"/><path class="cls-1" d="M104,130.7a6.5,6.5,0,0,0-9.1,1,6.5,6.5,0,1,0,10.1,8.1,6.5,6.5,0,0,0-1-9.1"/><path class="cls-1" d="M119.4,114.2a6.6,6.6,0,0,0-9.2.1,6.5,6.5,0,1,0,9.3,9.1,6.6,6.6,0,0,0-.1-9.2"/><path class="cls-1" d="M136.3,99.4a6.5,6.5,0,1,0-.8,9.1,6.4,6.4,0,0,0,.8-9.1"/><path class="cls-1" d="M154.7,86.3a6.5,6.5,0,0,0-10.8,7.3,6.5,6.5,0,0,0,10.8-7.3"/><path class="cls-1" d="M174.2,75.1a6.5,6.5,0,1,0-2.6,8.8,6.4,6.4,0,0,0,2.6-8.8"/><path class="cls-1" d="M194.8,65.9a6.6,6.6,0,0,0-8.5-3.5,6.7,6.7,0,0,0-3.5,8.6,6.6,6.6,0,0,0,8.6,3.4,6.5,6.5,0,0,0,3.4-8.5"/><path class="cls-1" d="M216.2,58.8a6.6,6.6,0,0,0-8.1-4.3,6.5,6.5,0,0,0-4.3,8.1,6.5,6.5,0,1,0,12.4-3.8"/><path class="cls-1" d="M238.2,53.9a6.5,6.5,0,0,0-7.7-5.1,6.5,6.5,0,1,0,7.7,5.1"/><path class="cls-1" d="M260.6,51.2a6.5,6.5,0,0,0-7.1-5.8,6.4,6.4,0,0,0-5.8,7.1,6.5,6.5,0,0,0,7.1,5.8,6.6,6.6,0,0,0,5.8-7.1"/><path class="cls-1" d="M282.6,28.1a6,6,0,1,0-6,6,6,6,0,0,0,6-6"/><path class="cls-1" d="M305.2,29.7a6,6,0,1,0-11.9-1.1,5.9,5.9,0,0,0,5.4,6.5,6,6,0,0,0,6.5-5.4"/><path class="cls-1" d="M327.5,33.3a6,6,0,0,0-4.8-7,6,6,0,1,0,4.8,7"/><path class="cls-1" d="M349.4,38.9a6,6,0,1,0-7.3,4.2,6,6,0,0,0,7.3-4.2"/><path class="cls-1" d="M370.8,46.5a6,6,0,0,0-3.5-7.7A6,6,0,0,0,363,50a6.1,6.1,0,0,0,7.8-3.5"/><path class="cls-1" d="M391.3,56a6,6,0,0,0-2.7-8,6.1,6.1,0,0,0-8.1,2.8A6,6,0,1,0,391.3,56"/><path class="cls-1" d="M410.9,67.4a6,6,0,0,0-2-8.2,6,6,0,0,0-6.2,10.2,6,6,0,0,0,8.2-2"/><path class="cls-1" d="M429.4,80.5a6,6,0,1,0-8.4,1.2,6,6,0,0,0,8.4-1.2"/><path class="cls-1" d="M446.6,95.2a6,6,0,1,0-8.5.5,6.1,6.1,0,0,0,8.5-.5"/><path class="cls-1" d="M462.4,111.4a6,6,0,1,0-8.2-8.8,6,6,0,0,0-.3,8.5,6.1,6.1,0,0,0,8.5.3"/><path class="cls-1" d="M476.6,129a6,6,0,1,0-8.4-1.1,6.1,6.1,0,0,0,8.4,1.1"/><path class="cls-1" d="M489.2,147.8a6.1,6.1,0,0,0,1.9-8.3,6,6,0,0,0-8.3-1.8,5.9,5.9,0,0,0-1.8,8.2,6,6,0,0,0,8.2,1.9"/><path class="cls-1" d="M500.1,167.6a6,6,0,0,0-5.5-10.6,6,6,0,1,0,5.5,10.6"/><path class="cls-1" d="M509.1,188.4a6.1,6.1,0,0,0,3.3-7.8,6.1,6.1,0,0,0-7.9-3.3,6,6,0,0,0,4.6,11.1"/><path class="cls-1" d="M516.1,209.9a6,6,0,0,0,4-7.5,6,6,0,1,0-11.4,3.5,5.9,5.9,0,0,0,7.4,4"/><path class="cls-1" d="M521.2,232a6,6,0,1,0-7.1-4.7,6.1,6.1,0,0,0,7.1,4.7"/><path class="cls-1" d="M524.3,254.4a6,6,0,0,0-1.4-11.9,6,6,0,1,0,1.4,11.9"/><path class="cls-1" d="M525.3,277a5.9,5.9,0,0,0,5.8-6.1A6,6,0,0,0,525,265a6,6,0,1,0,.3,12"/><path class="cls-1" d="M524.2,299.6a6,6,0,0,0,6.4-5.6,6,6,0,0,0-12-.8,6,6,0,0,0,5.6,6.4"/><path class="cls-1" d="M521.1,322a6,6,0,1,0,1.9-11.8,6.1,6.1,0,0,0-6.9,5,6,6,0,0,0,5,6.8"/><path class="cls-1" d="M516,344.1a6,6,0,0,0,2.9-11.6,6,6,0,0,0-7.3,4.3,6.1,6.1,0,0,0,4.4,7.3"/><path class="cls-1" d="M508.8,365.6a6.1,6.1,0,0,0,7.7-3.7,6,6,0,0,0-11.3-4,6,6,0,0,0,3.6,7.7"/><path class="cls-1" d="M499.8,386.3a5.9,5.9,0,0,0,7.9-2.9,6,6,0,0,0-2.9-8,6,6,0,0,0-5,10.9"/><path class="cls-1" d="M488.9,406.2a6.1,6.1,0,0,0,8.2-2.2,6,6,0,0,0-2.2-8.2,6,6,0,0,0-6,10.4"/><path class="cls-1" d="M476.2,424.9a6,6,0,1,0-1.4-8.3,5.9,5.9,0,0,0,1.4,8.3"/><path class="cls-1" d="M461.9,442.5a6,6,0,0,0,7.8-9.2,6,6,0,0,0-7.8,9.2"/><path class="cls-1" d="M446.1,458.6a6,6,0,0,0,8.5.1,6.1,6.1,0,0,0,.1-8.5,6,6,0,0,0-8.5,0,5.9,5.9,0,0,0-.1,8.4"/><path class="cls-1" d="M428.8,473.3a6.1,6.1,0,0,0,8.5.8,6,6,0,1,0-8.5-.8"/><path class="cls-1" d="M410.3,486.3a5.9,5.9,0,0,0,8.3,1.6,5.9,5.9,0,1,0-8.3-1.6"/><path class="cls-1" d="M390.7,497.6a6,6,0,1,0,2.4-8.1,6,6,0,0,0-2.4,8.1"/><path class="cls-1" d="M370.2,507.1a6,6,0,1,0,3.1-7.9,5.9,5.9,0,0,0-3.1,7.9"/><path class="cls-1" d="M348.8,514.6a6,6,0,0,0,11.4-3.7,6,6,0,0,0-7.6-3.9,6.1,6.1,0,0,0-3.8,7.6"/><path class="cls-1" d="M326.9,520.2a6,6,0,0,0,7.2,4.5,6,6,0,1,0-2.7-11.7,6,6,0,0,0-4.5,7.2"/><path class="cls-1" d="M304.5,523.8a6.1,6.1,0,0,0,6.8,5.1,6,6,0,0,0-1.7-11.9,6.1,6.1,0,0,0-5.1,6.8"/><path class="cls-1" d="M281.9,525.3a6.1,6.1,0,0,0,6.3,5.7,6,6,0,0,0,5.7-6.3,5.9,5.9,0,0,0-6.2-5.7,6.1,6.1,0,0,0-5.8,6.3"/><path class="cls-1" d="M259.3,524.7a6,6,0,1,0,6.3-5.7,6.1,6.1,0,0,0-6.3,5.7"/><path class="cls-1" d="M236.8,522.1a6,6,0,0,0,11.9,1.7,6,6,0,1,0-11.9-1.7"/><path class="cls-1" d="M214.7,517.5a6,6,0,1,0,7.2-4.5,6,6,0,0,0-7.2,4.5"/><path class="cls-1" d="M193,510.9a6,6,0,0,0,3.8,7.5,5.9,5.9,0,0,0,7.6-3.8,6,6,0,1,0-11.4-3.7"/><path class="cls-1" d="M172.1,502.3a6,6,0,1,0,7.9-3.1,6.1,6.1,0,0,0-7.9,3.1"/><path class="cls-1" d="M152,491.8a6.1,6.1,0,0,0,2.4,8.2,6,6,0,1,0-2.4-8.2"/><path class="cls-1" d="M132.9,479.6a6,6,0,0,0,1.7,8.3,5.9,5.9,0,0,0,8.3-1.6,6,6,0,0,0-10-6.7"/><path class="cls-1" d="M115.1,465.7a5.9,5.9,0,0,0,.9,8.4,6,6,0,0,0,8.4-.8,5.9,5.9,0,0,0-.9-8.4,6,6,0,0,0-8.4.8"/><path class="cls-1" d="M98.6,450.2a6,6,0,0,0,.1,8.5,5.9,5.9,0,1,0-.1-8.5"/><path class="cls-1" d="M83.5,433.3a6,6,0,1,0,8.5.7,6.1,6.1,0,0,0-8.5-.7"/><path class="cls-1" d="M70.1,415.1a6,6,0,1,0,6.9,9.8,6,6,0,0,0-6.9-9.8"/><path class="cls-1" d="M58.3,395.8a6,6,0,0,0,6,10.4,6,6,0,1,0-6-10.4"/><path class="cls-1" d="M48.4,375.4a6,6,0,0,0-2.9,8,5.9,5.9,0,0,0,7.9,2.9,6,6,0,1,0-5-10.9"/><path class="cls-1" d="M40.4,354.3a6,6,0,0,0-3.7,7.6,6,6,0,1,0,11.3-4,5.9,5.9,0,0,0-7.6-3.6"/><path class="cls-1" d="M34.3,332.5a6,6,0,1,0,7.3,4.3,5.9,5.9,0,0,0-7.3-4.3"/><path class="cls-1" d="M30.2,310.2a6,6,0,1,0,6.9,5,6,6,0,0,0-6.9-5"/><path class="cls-1" d="M28.2,287.7a5.9,5.9,0,0,0-5.6,6.3,6.1,6.1,0,0,0,6.4,5.6,6,6,0,0,0,5.6-6.4,5.9,5.9,0,0,0-6.4-5.5"/><path class="cls-1" d="M28.2,265a6,6,0,0,0-6.1,5.9,6,6,0,1,0,12,.2,6,6,0,0,0-5.9-6.1"/><path class="cls-1" d="M30.3,242.5a6,6,0,1,0,5.3,6.6,6,6,0,0,0-5.3-6.6"/><path class="cls-1" d="M34.4,220.2a5.9,5.9,0,0,0-7,4.7A6,6,0,0,0,32,232a6.1,6.1,0,0,0,7.1-4.7,6,6,0,0,0-4.7-7.1"/><path class="cls-1" d="M40.6,198.4a6.1,6.1,0,0,0-7.5,4,6,6,0,1,0,11.5,3.5,6.2,6.2,0,0,0-4-7.5"/><path class="cls-1" d="M48.7,177.3a6,6,0,0,0-7.8,3.3,5.9,5.9,0,0,0,3.3,7.8,6,6,0,0,0,4.5-11.1"/><path class="cls-1" d="M58.7,157a6,6,0,1,0,2.5,8.1,6,6,0,0,0-2.5-8.1"/><path class="cls-1" d="M70.4,137.7a5.9,5.9,0,0,0-8.2,1.8,6,6,0,0,0,1.8,8.3,6.1,6.1,0,0,0,8.3-1.9,6,6,0,0,0-1.9-8.2"/><path class="cls-1" d="M83.9,119.5a6,6,0,0,0-8.4,1,6.1,6.1,0,0,0,1.1,8.5,6,6,0,0,0,8.4-1.1,5.9,5.9,0,0,0-1.1-8.4"/><path class="cls-1" d="M99,102.6a6,6,0,0,0-8.2,8.8,6.1,6.1,0,0,0,8.5-.3,6,6,0,0,0-.3-8.5"/><path class="cls-1" d="M115.6,87.2a6,6,0,1,0-.5,8.5,6,6,0,0,0,.5-8.5"/><path class="cls-1" d="M133.5,73.3a6,6,0,0,0-8.4-1.2,6,6,0,1,0,8.4,1.2"/><path class="cls-1" d="M152.6,61.2a5.9,5.9,0,0,0-8.3-2,6,6,0,0,0-2,8.2,6.1,6.1,0,0,0,8.3,2,6,6,0,0,0,2-8.2"/><path class="cls-1" d="M172.7,50.8a6,6,0,1,0-2.8,8,6.1,6.1,0,0,0,2.8-8"/><path class="cls-1" d="M193.7,42.3a6.1,6.1,0,0,0-7.8-3.5A6,6,0,0,0,190.2,50a6,6,0,0,0,3.5-7.7"/><path class="cls-1" d="M215.3,35.7a6,6,0,1,0-4.1,7.4,6,6,0,0,0,4.1-7.4"/><path class="cls-1" d="M237.5,31.1a6,6,0,1,0-4.8,7,6,6,0,0,0,4.8-7"/><path class="cls-1" d="M260,28.6a6,6,0,0,0-6.5-5.4,6,6,0,1,0,6.5,5.4"/><path class="cls-1" d="M282.1,5.5a5.5,5.5,0,0,0-11,0,5.5,5.5,0,0,0,11,0"/><path class="cls-1" d="M304.8,6.9a5.5,5.5,0,1,0-6,5,5.5,5.5,0,0,0,6-5"/><path class="cls-1" d="M327.3,10.2a5.5,5.5,0,0,0-10.9-1.8,5.5,5.5,0,0,0,4.5,6.3,5.6,5.6,0,0,0,6.4-4.5"/><path class="cls-1" d="M349.4,15.4a5.5,5.5,0,0,0-10.7-2.8,5.5,5.5,0,0,0,10.7,2.8"/><path class="cls-1" d="M371,22.4a5.5,5.5,0,1,0-7,3.4,5.5,5.5,0,0,0,7-3.4"/><path class="cls-1" d="M391.9,31.2a5.5,5.5,0,1,0-10-4.5,5.5,5.5,0,1,0,10,4.5"/><path class="cls-1" d="M412.1,41.7a5.5,5.5,0,1,0-7.5,2.1,5.6,5.6,0,0,0,7.5-2.1"/><path class="cls-1" d="M431.3,53.8a5.6,5.6,0,0,0-1.6-7.6,5.4,5.4,0,0,0-7.6,1.6,5.5,5.5,0,1,0,9.2,6"/><path class="cls-1" d="M449.4,67.6a5.7,5.7,0,0,0-.9-7.8,5.6,5.6,0,0,0-6.9,8.7,5.7,5.7,0,0,0,7.8-.9"/><path class="cls-1" d="M466.3,82.7a5.5,5.5,0,0,0-8.1-7.5,5.6,5.6,0,0,0,.3,7.8,5.4,5.4,0,0,0,7.8-.3"/><path class="cls-1" d="M481.8,99.3a5.5,5.5,0,0,0-7.3-8.2,5.4,5.4,0,0,0-.4,7.8,5.5,5.5,0,0,0,7.7.4"/><path class="cls-1" d="M495.9,117.1a5.5,5.5,0,0,0,1.1-7.7,5.5,5.5,0,1,0-8.8,6.6,5.5,5.5,0,0,0,7.7,1.1"/><path class="cls-1" d="M508.5,136a5.5,5.5,0,0,0,1.7-7.6,5.5,5.5,0,1,0-1.7,7.6"/><path class="cls-1" d="M519.5,155.9a5.5,5.5,0,1,0-7.4-2.3,5.5,5.5,0,0,0,7.4,2.3"/><path class="cls-1" d="M528.7,176.6a5.5,5.5,0,0,0,3-7.1,5.5,5.5,0,0,0-7.2-3,5.6,5.6,0,0,0-3,7.2,5.5,5.5,0,0,0,7.2,2.9"/><path class="cls-1" d="M536.2,198.1a5.5,5.5,0,1,0-3.4-10.4,5.5,5.5,0,0,0,3.4,10.4"/><path class="cls-1" d="M541.9,220.1a5.6,5.6,0,0,0,4.1-6.6,5.5,5.5,0,1,0-4.1,6.6"/><path class="cls-1" d="M545.7,242.5a5.4,5.4,0,0,0,4.6-6.2,5.5,5.5,0,1,0-10.8,1.6,5.4,5.4,0,0,0,6.2,4.6"/><path class="cls-1" d="M547.6,265.1a5.5,5.5,0,1,0-5.8-5.1,5.5,5.5,0,0,0,5.8,5.1"/><path class="cls-1" d="M547.6,287.8a5.5,5.5,0,1,0,.2-10.9,5.5,5.5,0,1,0-.2,10.9"/><path class="cls-1" d="M545.7,310.5a5.6,5.6,0,0,0,6.1-4.9,5.5,5.5,0,1,0-6.1,4.9"/><path class="cls-1" d="M542,332.9a5.6,5.6,0,0,0,6.4-4.4,5.5,5.5,0,1,0-6.4,4.4"/><path class="cls-1" d="M536.3,354.9a5.5,5.5,0,1,0-3.8-6.8,5.6,5.6,0,0,0,3.8,6.8"/><path class="cls-1" d="M528.9,376.3a5.3,5.3,0,0,0,7-3.2,5.4,5.4,0,0,0-3.2-7,5.4,5.4,0,1,0-3.8,10.2"/><path class="cls-1" d="M519.6,397.1a5.6,5.6,0,0,0,7.4-2.6,5.5,5.5,0,1,0-7.4,2.6"/><path class="cls-1" d="M508.7,417a5.5,5.5,0,1,0-2-7.5,5.5,5.5,0,0,0,2,7.5"/><path class="cls-1" d="M496.2,435.9a5.4,5.4,0,0,0,7.6-1.3,5.6,5.6,0,0,0-1.4-7.7,5.5,5.5,0,1,0-6.2,9"/><path class="cls-1" d="M482.1,453.8a5.4,5.4,0,0,0,7.7-.8,5.5,5.5,0,0,0-.7-7.7,5.6,5.6,0,0,0-7.8.7,5.6,5.6,0,0,0,.8,7.8"/><path class="cls-1" d="M466.5,470.3a5.5,5.5,0,1,0,7.7-7.8,5.5,5.5,0,1,0-7.7,7.8"/><path class="cls-1" d="M449.7,485.5a5.4,5.4,0,0,0,7.7.6,5.5,5.5,0,1,0-7.2-8.3,5.4,5.4,0,0,0-.5,7.7"/><path class="cls-1" d="M431.6,499.3a5.4,5.4,0,0,0,7.6,1.2,5.5,5.5,0,1,0-6.4-8.9,5.5,5.5,0,0,0-1.2,7.7"/><path class="cls-1" d="M412.4,511.5a5.5,5.5,0,0,0,9.4-5.7,5.5,5.5,0,1,0-9.4,5.7"/><path class="cls-1" d="M392.3,522a5.5,5.5,0,0,0,7.3,2.5,5.5,5.5,0,0,0,2.5-7.4,5.4,5.4,0,0,0-7.4-2.4,5.4,5.4,0,0,0-2.4,7.3"/><path class="cls-1" d="M371.3,530.8a5.6,5.6,0,0,0,7.2,3.1,5.4,5.4,0,0,0,3-7.1,5.5,5.5,0,0,0-10.2,4"/><path class="cls-1" d="M349.7,537.9a5.5,5.5,0,0,0,6.9,3.6,5.4,5.4,0,0,0,3.6-6.8,5.4,5.4,0,0,0-6.8-3.7,5.6,5.6,0,0,0-3.7,6.9"/><path class="cls-1" d="M327.6,543.1a5.6,5.6,0,0,0,6.5,4.2,5.5,5.5,0,1,0-6.5-4.2"/><path class="cls-1" d="M305.2,546.4A5.4,5.4,0,1,0,316,545a5.4,5.4,0,1,0-10.8,1.4"/><path class="cls-1" d="M282.5,547.8a5.5,5.5,0,0,0,5.7,5.3,5.6,5.6,0,0,0,5.3-5.7,5.6,5.6,0,0,0-5.8-5.3,5.5,5.5,0,0,0-5.2,5.7"/><path class="cls-1" d="M259.8,547.4a5.5,5.5,0,1,0,10.9.4,5.5,5.5,0,0,0-5.2-5.7,5.6,5.6,0,0,0-5.7,5.3"/><path class="cls-1" d="M237.2,545a5.5,5.5,0,0,0,4.7,6.2,5.7,5.7,0,0,0,6.2-4.8,5.5,5.5,0,0,0-10.9-1.4"/><path class="cls-1" d="M214.9,540.8a5.4,5.4,0,0,0,4.2,6.5,5.5,5.5,0,0,0,2.3-10.7,5.4,5.4,0,0,0-6.5,4.2"/><path class="cls-1" d="M193,534.7a5.4,5.4,0,0,0,3.6,6.8,5.5,5.5,0,0,0,6.9-3.6,5.6,5.6,0,0,0-3.7-6.9,5.5,5.5,0,0,0-6.8,3.7"/><path class="cls-1" d="M171.7,526.8a5.4,5.4,0,0,0,3.1,7.1,5.5,5.5,0,1,0-3.1-7.1"/><path class="cls-1" d="M151.1,517.1A5.5,5.5,0,1,0,161,522a5.5,5.5,0,0,0-9.9-4.9"/><path class="cls-1" d="M131.4,505.8a5.5,5.5,0,0,0,1.9,7.5,5.4,5.4,0,0,0,7.5-1.8,5.5,5.5,0,0,0-1.8-7.6,5.6,5.6,0,0,0-7.6,1.9"/><path class="cls-1" d="M112.8,492.8a5.5,5.5,0,0,0,1.2,7.7,5.5,5.5,0,1,0,6.4-8.9,5.4,5.4,0,0,0-7.6,1.2"/><path class="cls-1" d="M95.3,478.4a5.4,5.4,0,0,0,.5,7.7,5.5,5.5,0,0,0,7.8-.6,5.5,5.5,0,1,0-8.3-7.1"/><path class="cls-1" d="M79,462.5a5.5,5.5,0,0,0-.1,7.7,5.5,5.5,0,0,0,7.9-7.6,5.5,5.5,0,0,0-7.8-.1"/><path class="cls-1" d="M64.2,445.3a5.4,5.4,0,0,0-.8,7.7,5.6,5.6,0,0,0,7.8.8,5.6,5.6,0,0,0,.7-7.8,5.5,5.5,0,0,0-7.7-.7"/><path class="cls-1" d="M50.8,426.9a5.6,5.6,0,0,0-1.4,7.7,5.5,5.5,0,0,0,7.7,1.3,5.4,5.4,0,0,0,1.3-7.6,5.5,5.5,0,0,0-7.6-1.4"/><path class="cls-1" d="M39,407.5a5.5,5.5,0,1,0,7.5,2,5.5,5.5,0,0,0-7.5-2"/><path class="cls-1" d="M28.9,387.2a5.5,5.5,0,1,0,7.3,2.6,5.5,5.5,0,0,0-7.3-2.6"/><path class="cls-1" d="M20.5,366.1a5.5,5.5,0,1,0,3.9,10.2,5.5,5.5,0,1,0-3.9-10.2"/><path class="cls-1" d="M13.9,344.3a5.5,5.5,0,1,0,6.8,3.8,5.6,5.6,0,0,0-6.8-3.8"/><path class="cls-1" d="M9.2,322.1a5.5,5.5,0,0,0-4.4,6.4,5.6,5.6,0,0,0,6.5,4.4,5.5,5.5,0,0,0,4.3-6.4,5.4,5.4,0,0,0-6.4-4.4"/><path class="cls-1" d="M6.3,299.6a5.3,5.3,0,0,0-4.8,6,5.5,5.5,0,1,0,10.9-1.2,5.4,5.4,0,0,0-6.1-4.8"/><path class="cls-1" d="M5.4,276.9A5.4,5.4,0,0,0,0,282.5a5.5,5.5,0,0,0,11-.3,5.5,5.5,0,0,0-5.6-5.3"/><path class="cls-1" d="M6.3,254.2a5.5,5.5,0,0,0-.7,10.9,5.4,5.4,0,0,0,5.8-5.1,5.5,5.5,0,0,0-5.1-5.8"/><path class="cls-1" d="M9.1,231.6a5.6,5.6,0,0,0-6.2,4.7,5.5,5.5,0,0,0,4.6,6.2,5.6,5.6,0,0,0,6.3-4.6,5.7,5.7,0,0,0-4.7-6.3"/><path class="cls-1" d="M13.8,209.4a5.3,5.3,0,0,0-6.5,4.1,5.5,5.5,0,0,0,4,6.6,5.5,5.5,0,0,0,2.5-10.7"/><path class="cls-1" d="M20.4,187.7A5.5,5.5,0,0,0,17,198.1a5.5,5.5,0,0,0,6.9-3.5,5.4,5.4,0,0,0-3.5-6.9"/><path class="cls-1" d="M28.7,166.5a5.4,5.4,0,0,0-7.1,3,5.3,5.3,0,0,0,2.9,7.1,5.5,5.5,0,1,0,4.2-10.1"/><path class="cls-1" d="M38.8,146.2a5.5,5.5,0,0,0-7.4,2.3,5.5,5.5,0,1,0,7.4-2.3"/><path class="cls-1" d="M50.6,126.7a5.6,5.6,0,0,0-7.6,1.7,5.5,5.5,0,0,0,9.3,5.9,5.6,5.6,0,0,0-1.7-7.6"/><path class="cls-1" d="M63.9,108.3a5.5,5.5,0,0,0-6.6,8.8A5.5,5.5,0,0,0,65,116a5.6,5.6,0,0,0-1.1-7.7"/><path class="cls-1" d="M78.8,91.1a5.5,5.5,0,1,0,.4,7.8,5.6,5.6,0,0,0-.4-7.8"/><path class="cls-1" d="M95,75.2a5.5,5.5,0,0,0-7.8-.2,5.4,5.4,0,0,0-.2,7.7,5.3,5.3,0,0,0,7.7.3,5.5,5.5,0,0,0,.3-7.8"/><path class="cls-1" d="M112.5,60.7a5.6,5.6,0,0,0-7.7-.9,5.5,5.5,0,1,0,7.7.9"/><path class="cls-1" d="M131.1,47.8a5.4,5.4,0,0,0-7.6-1.6,5.5,5.5,0,0,0-1.5,7.6,5.4,5.4,0,0,0,7.6,1.6,5.5,5.5,0,0,0,1.5-7.6"/><path class="cls-1" d="M150.8,36.4a5.5,5.5,0,1,0-9.6,5.3,5.5,5.5,0,0,0,9.6-5.3"/><path class="cls-1" d="M171.3,26.7a5.4,5.4,0,0,0-7.2-2.8A5.5,5.5,0,0,0,168.5,34a5.5,5.5,0,0,0,2.8-7.3"/><path class="cls-1" d="M192.6,18.8a5.5,5.5,0,0,0-7-3.4,5.5,5.5,0,1,0,7,3.4"/><path class="cls-1" d="M214.5,12.6a5.5,5.5,0,0,0-6.7-3.9,5.4,5.4,0,0,0-3.9,6.7,5.4,5.4,0,0,0,6.6,3.9,5.5,5.5,0,0,0,4-6.7"/><path class="cls-1" d="M236.8,8.4a5.5,5.5,0,1,0-4.5,6.3,5.5,5.5,0,0,0,4.5-6.3"/><path class="cls-1" d="M259.4,6a5.5,5.5,0,0,0-11,.9,5.6,5.6,0,0,0,6,5,5.5,5.5,0,0,0,5-5.9"/></g></g></svg>