<svg id="Layer_1" data-name="Layer 1" xmlns="http://www.w3.org/2000/svg" viewBox="0 0 1988.55 274.79"><defs><style>.cls-1{fill:#fff;}.cls-2{fill:#231f20;}.cls-3{fill:#c2c4c6;}.cls-4{fill:none;stroke:#00aeef;stroke-miterlimit:10;stroke-width:0.25px;}</style></defs><path class="cls-1" d="M193.69,242.48h5.13v23.69a22.54,22.54,0,0,1-5.13-2.12Z" transform="translate(-193.69 -136.67)"/><path class="cls-1" d="M210.13,265.29a58.91,58.91,0,0,0,15,1.59c15.55,0,27.05-6.54,27.05-20.16,0-13.25-11.85-16.26-24.75-18.38l-4.6-.71c-14.14-2.29-28.63-5.3-28.63-21.92,0-14.84,13.08-23.68,31.28-23.68a43.09,43.09,0,0,1,11.67,1.41v4.42a51.51,51.51,0,0,0-11.67-1.24c-15.2,0-25.63,6.72-25.63,18.74,0,13.08,12.2,15.55,25.28,17.68l4.42.7c14.14,2.3,28.11,5.66,28.11,23,0,16.8-14.15,24.75-32.53,24.75a58.78,58.78,0,0,1-15-1.76Z" transform="translate(-193.69 -136.67)"/><path class="cls-1" d="M248.49,187.33a20.88,20.88,0,0,1,5.13,2.12V211h-5.13Z" transform="translate(-193.69 -136.67)"/><path class="cls-1" d="M274.17,226.75c0-24.22,14.14-41.19,32.71-44.2v5c-15.38,3-27.05,18.2-27.05,39.24,0,21.21,11.14,36.41,27.05,39.24v4.95C287.25,268.29,274.17,251.32,274.17,226.75Z" transform="translate(-193.69 -136.67)"/><path class="cls-1" d="M318.19,266c15.2-3,27-18.2,27-39.24,0-21.39-11.31-36.42-27-39.24v-5c19.62,2.66,32.7,19.8,32.7,44.2s-14.14,41.36-32.7,44.19Z" transform="translate(-193.69 -136.67)"/><polygon class="cls-1" points="183.06 8.76 167.68 8.76 167.68 3.81 188.71 3.81 188.71 110.28 183.06 110.28 183.06 8.76"/><rect class="cls-1" x="167.68" y="128.26" width="51.16" height="4.95"/><polygon class="cls-1" points="228.65 110.28 223 110.28 223 46.94 244.73 46.94 244.73 51.9 228.65 51.9 228.65 110.28"/><rect class="cls-1" x="207.61" y="128.26" width="37.12" height="4.95"/><rect class="cls-1" x="222.82" y="3.81" width="6.01" height="6.12"/><path class="cls-1" d="M465.48,188.57H450.8v-4.95h20.33v53.2c0,21.22,10.44,29.7,25.82,29.7a26.42,26.42,0,0,0,17.67-6.72v5.13a29.43,29.43,0,0,1-19.09,6.54c-17.14,0-30-9.54-30-33.94Z" transform="translate(-193.69 -136.67)"/><polygon class="cls-1" points="332.24 51.9 317.57 51.9 317.57 46.94 337.9 46.94 337.9 128.26 365.74 128.26 365.74 133.21 332.24 133.21 332.24 51.9"/><path class="cls-1" d="M586.64,216.32c0-20.86-9.9-29.34-24-29.34a27,27,0,0,0-17.33,6.54v-5.13A31,31,0,0,1,563.66,182c16.44,0,28.64,9.54,28.64,33.58v49.32h14.85v4.95H586.64Z" transform="translate(-193.69 -136.67)"/><path class="cls-1" d="M599.19,192.28A29.31,29.31,0,0,1,622,182c16.44,0,28.64,9.54,28.64,33.58v49.32h14.85v4.95H645V216.32c0-20.86-9.54-29.34-24-29.34a26.12,26.12,0,0,0-20.15,9.54A13.35,13.35,0,0,0,599.19,192.28Z" transform="translate(-193.69 -136.67)"/><path class="cls-1" d="M226.36,290H210.27v-4.95h21.57v19.1H232c3.53-10.26,12.72-19.1,26.69-19.1H263v5.31h-4.41c-14,0-26.52,11.14-26.52,33.41v24.8h-5.66Z" transform="translate(-193.69 -136.67)"/><rect class="cls-1" x="16.58" y="229.9" width="43.31" height="4.77"/><path class="cls-1" d="M306.47,284v5.13C290.91,292.5,280,307.7,280,328.74,280,353.49,293,368,315.13,368c10.43,0,20.33-2.47,29-8.31v5.13c-8.13,5.84-18.21,8.13-29,8.13-25.1,0-40.83-15.55-40.83-44.19C274.3,304.7,287.56,287.37,306.47,284Z" transform="translate(-193.69 -136.67)"/><path class="cls-1" d="M291.27,322.55h49.67c-.18-19.44-10.08-31.46-23.16-33.59v-5.13c16.79,2.48,29,17.15,29,40.66v2.66h-55.5Z" transform="translate(-193.69 -136.67)"/><path class="cls-1" d="M404.84,283.48a31.47,31.47,0,0,1,21.22,7.61v5.48a29.74,29.74,0,0,0-20.69-8.14c-18,0-32,16.44-32,40.49s14.14,39.06,32,39.06a29.73,29.73,0,0,0,20.69-8.13v5.3a33,33,0,0,1-21.75,7.78c-21,0-36.59-17-36.59-44S383.81,283.48,404.84,283.48Z" transform="translate(-193.69 -136.67)"/><path class="cls-1" d="M403.78,406.7c18.21,0,33.59-9,33.59-36.24V285.07h45.08V290H442.86v80.44c0,31.11-18,41-39.08,41-10.78,0-19.44-1.24-30-7.42v-5.31C385,405.1,393.53,406.7,403.78,406.7Z" transform="translate(-193.69 -136.67)"/><polygon class="cls-1" points="282.15 229.72 298.24 229.72 298.24 153.35 282.15 153.35 282.15 148.4 303.9 148.4 303.9 229.72 318.57 229.72 318.57 234.67 282.15 234.67 282.15 229.72"/><path class="cls-1" d="M553.1,318.13c0-21.21-10.43-29.7-25.82-29.7a27.9,27.9,0,0,0-18.38,6.9V290.2a30.93,30.93,0,0,1,19.45-6.72c17.5,0,30.4,9.55,30.4,33.95v49h41.48v4.95H553.1Z" transform="translate(-193.69 -136.67)"/><polygon class="cls-1" points="407.77 211.74 413.43 211.74 413.43 148.4 391.69 148.4 391.69 153.35 407.77 153.35 407.77 211.74"/><rect class="cls-1" x="391.69" y="229.72" width="37.12" height="4.95"/><rect class="cls-1" x="407.6" y="113.94" width="6.01" height="6.21"/><polygon class="cls-2" points="1973.34 159.19 1973.69 159.19 1973.69 155.62 1974.67 155.62 1974.67 155.32 1973.34 155.32 1973.34 159.19"/><rect class="cls-2" x="1973.33" y="152.68" width="0.37" height="0.37"/><polygon class="cls-2" points="1970.9 159.19 1971.25 159.19 1971.25 152.68 1969.96 152.68 1969.96 152.99 1970.9 152.99 1970.9 159.19"/><path class="cls-2" d="M2153.4,296.91a1.13,1.13,0,0,0,.32.13v-1.45h-.32Z" transform="translate(-193.69 -136.67)"/><path class="cls-2" d="M2157.07,292.35a1.44,1.44,0,0,0-.32-.13v1.45h.32Z" transform="translate(-193.69 -136.67)"/><rect class="cls-2" x="1984.63" y="159.42" width="0.37" height="0.38"/><polygon class="cls-2" points="1980.02 160.59 1982.07 160.59 1982.07 160.29 1980.37 160.29 1980.37 155.32 1979.12 155.32 1979.12 155.62 1980.02 155.62 1980.02 160.59"/><polygon class="cls-2" points="1984.98 165.4 1984.98 161.52 1983.65 161.52 1983.65 161.83 1984.64 161.83 1984.64 165.4 1984.98 165.4"/><rect class="cls-2" x="1960.72" y="166.51" width="2.65" height="0.29"/><polygon class="cls-2" points="1973.09 160.59 1974.67 160.59 1974.67 160.29 1973.09 160.29 1972.4 160.29 1969.96 160.29 1969.96 160.59 1972.4 160.59 1973.09 160.59"/><path class="cls-2" d="M2172,298.2h-3.68v5.22c0,1.66-.94,2.21-2.05,2.21a3.47,3.47,0,0,1-1.84-.48v.32a3.29,3.29,0,0,0,1.84.45,2.19,2.19,0,0,0,2.39-2.5V298.5h3v4.67h-1v.3h2.23v-.3h-.9Z" transform="translate(-193.69 -136.67)"/><path class="cls-2" d="M2155.75,299.36h0V298.2h-1.32v.3h1v3.58h.35v-1.52c0-1.36.76-2,1.62-2h.27v-.32h-.26A1.67,1.67,0,0,0,2155.75,299.36Z" transform="translate(-193.69 -136.67)"/><path class="cls-2" d="M2172.81,296.78a1.55,1.55,0,0,1-.87.28c-.94,0-1.58-.52-1.58-1.81V292h-1.24v.31h.9v3c0,1.49.79,2.07,1.84,2.07a1.76,1.76,0,0,0,.95-.28Z" transform="translate(-193.69 -136.67)"/><path class="cls-2" d="M2177.77,297v-3c0-1.47-.74-2.05-1.75-2.05a1.84,1.84,0,0,0-1.07.36v.31a1.63,1.63,0,0,1,1-.37c.86,0,1.47.52,1.47,1.79v3.28h1.25V297Z" transform="translate(-193.69 -136.67)"/><path class="cls-2" d="M2178.26,303.17h-2.54v-3c0-1.49-.79-2.07-1.86-2.07a1.87,1.87,0,0,0-1,.31v.3a1.73,1.73,0,0,1,.94-.31c.94,0,1.58.52,1.58,1.82v3.25h4.24v-.3Z" transform="translate(-193.69 -136.67)"/><path class="cls-2" d="M2167.4,302.93a1.8,1.8,0,0,1-1.06.33c-1.09,0-2-.91-2-2.38s.85-2.48,2-2.48a1.81,1.81,0,0,1,1.06.34v-.32a1.89,1.89,0,0,0-1.09-.32c-1.28,0-2.27,1.12-2.27,2.78s.95,2.69,2.24,2.69a2,2,0,0,0,1.12-.33Z" transform="translate(-193.69 -136.67)"/><path class="cls-2" d="M2161.1,292v.31a2.23,2.23,0,0,1,1.56,2.37,2.29,2.29,0,0,1-1.56,2.37v.31a2.53,2.53,0,0,0,1.91-2.68A2.47,2.47,0,0,0,2161.1,292Z" transform="translate(-193.69 -136.67)"/><path class="cls-2" d="M2160.2,297a2.59,2.59,0,0,1,0-4.73V292a2.55,2.55,0,0,0-1.88,2.67,2.48,2.48,0,0,0,1.88,2.68Z" transform="translate(-193.69 -136.67)"/><path class="cls-2" d="M2181.34,297v-3c0-1.47-.75-2.05-1.75-2.05a1.82,1.82,0,0,0-1.21.45l.09.26a1.54,1.54,0,0,1,1.05-.41c.89,0,1.47.52,1.47,1.79v3.28h1.26V297Z" transform="translate(-193.69 -136.67)"/><path class="cls-2" d="M2158.68,300.87a2.29,2.29,0,0,1,1.52-2.39v-.32a2.58,2.58,0,0,0-1.87,2.71,2.38,2.38,0,0,0,2.5,2.7,3,3,0,0,0,1.77-.5v-.31a3.17,3.17,0,0,1-1.77.5C2159.48,303.26,2158.68,302.38,2158.68,300.87Z" transform="translate(-193.69 -136.67)"/><path class="cls-2" d="M2161.09,298.15v.32a1.9,1.9,0,0,1,1.32,2h-2.63v.28h3v-.16A2.25,2.25,0,0,0,2161.09,298.15Z" transform="translate(-193.69 -136.67)"/><path class="cls-2" d="M2155.6,294.45l-.27-.05c-.8-.13-1.55-.28-1.55-1.08s.64-1.14,1.57-1.14a4.4,4.4,0,0,1,.51.05v-.29a2.92,2.92,0,0,0-.51,0c-1.11,0-1.91.54-1.91,1.45s.88,1.19,1.75,1.33l.28.05c.79.13,1.51.31,1.51,1.12s-.7,1.23-1.65,1.23a4.2,4.2,0,0,1-.72-.06v.27a3.38,3.38,0,0,0,.72.07c1.12,0,2-.48,2-1.51S2156.46,294.59,2155.6,294.45Z" transform="translate(-193.69 -136.67)"/><rect class="cls-3" x="1263.57" y="229.72" width="37.12" height="4.95"/><rect class="cls-3" x="1095.7" y="3.81" width="6.01" height="6.12"/><rect class="cls-3" x="1080.49" y="128.26" width="37.13" height="4.95"/><path class="cls-3" d="M1276.66,406.7c18.21,0,33.59-9,33.59-36.24V285.07h45.08V290h-39.59v80.44c0,31.11-18,41-39.08,41-10.78,0-19.44-1.24-30.05-7.42v-5.31C1257.92,405.1,1266.41,406.7,1276.66,406.7Z" transform="translate(-193.69 -136.67)"/><path class="cls-3" d="M1066.58,242.48h5.12v23.69a22.27,22.27,0,0,1-5.12-2.12Z" transform="translate(-193.69 -136.67)"/><path class="cls-3" d="M1083,265.29a58.91,58.91,0,0,0,15,1.59c15.55,0,27-6.54,27-20.16,0-13.25-11.85-16.26-24.75-18.38l-4.6-.71c-14.14-2.29-28.63-5.3-28.63-21.92,0-14.84,13.08-23.68,31.28-23.68a43.09,43.09,0,0,1,11.67,1.41v4.42a51.51,51.51,0,0,0-11.67-1.24c-15.2,0-25.63,6.72-25.63,18.74,0,13.08,12.2,15.55,25.28,17.68l4.42.7c14.14,2.3,28.11,5.66,28.11,23,0,16.8-14.15,24.75-32.53,24.75a58.78,58.78,0,0,1-15-1.76Z" transform="translate(-193.69 -136.67)"/><path class="cls-3" d="M1121.37,187.33a20.88,20.88,0,0,1,5.13,2.12V211h-5.13Z" transform="translate(-193.69 -136.67)"/><path class="cls-3" d="M1147.05,226.75c0-24.22,14.14-41.19,32.71-44.2v5c-15.38,3-27,18.2-27,39.24,0,21.21,11.14,36.41,27,39.24v4.95C1160.13,268.29,1147.05,251.32,1147.05,226.75Z" transform="translate(-193.69 -136.67)"/><path class="cls-3" d="M1191.07,266c15.2-3,27-18.2,27-39.24,0-21.39-11.32-36.42-27-39.24v-5c19.62,2.66,32.7,19.8,32.7,44.2s-14.14,41.36-32.7,44.19Z" transform="translate(-193.69 -136.67)"/><polygon class="cls-3" points="1055.94 8.76 1040.56 8.76 1040.56 3.81 1061.59 3.81 1061.59 110.28 1055.94 110.28 1055.94 8.76"/><rect class="cls-3" x="1040.56" y="128.26" width="51.16" height="4.95"/><polygon class="cls-3" points="1101.53 110.28 1095.88 110.28 1095.88 46.94 1117.61 46.94 1117.61 51.9 1101.53 51.9 1101.53 110.28"/><path class="cls-3" d="M1338.36,188.57h-14.68v-4.95H1344v53.2c0,21.22,10.43,29.7,25.81,29.7a26.42,26.42,0,0,0,17.67-6.72v5.13a29.43,29.43,0,0,1-19.09,6.54c-17.14,0-30.05-9.54-30.05-33.94Z" transform="translate(-193.69 -136.67)"/><polygon class="cls-3" points="1205.12 51.9 1190.45 51.9 1190.45 46.94 1210.78 46.94 1210.78 128.26 1238.62 128.26 1238.62 133.21 1205.12 133.21 1205.12 51.9"/><path class="cls-3" d="M1459.52,216.32c0-20.86-9.9-29.34-24-29.34a27,27,0,0,0-17.32,6.54v-5.13a30.9,30.9,0,0,1,18.38-6.36c16.44,0,28.64,9.54,28.64,33.58v49.32H1480v4.95h-20.51Z" transform="translate(-193.69 -136.67)"/><path class="cls-3" d="M1472.07,192.28a29.31,29.31,0,0,1,22.8-10.25c16.44,0,28.64,9.54,28.64,33.58v49.32h14.85v4.95h-20.51V216.32c0-20.86-9.54-29.34-24-29.34a26.12,26.12,0,0,0-20.15,9.54A13.35,13.35,0,0,0,1472.07,192.28Z" transform="translate(-193.69 -136.67)"/><path class="cls-3" d="M1099.24,290h-16.08v-4.95h21.56v19.1h.18c3.53-10.26,12.72-19.1,26.69-19.1h4.24v5.31h-4.41c-14,0-26.52,11.14-26.52,33.41v24.8h-5.66Z" transform="translate(-193.69 -136.67)"/><rect class="cls-3" x="889.46" y="229.9" width="43.31" height="4.77"/><path class="cls-3" d="M1179.35,284v5.13c-15.56,3.36-26.52,18.56-26.52,39.6,0,24.75,13.09,39.24,35.18,39.24,10.43,0,20.33-2.47,29-8.31v5.13c-8.13,5.84-18.21,8.13-29,8.13-25.1,0-40.83-15.55-40.83-44.19C1147.18,304.7,1160.44,287.37,1179.35,284Z" transform="translate(-193.69 -136.67)"/><path class="cls-3" d="M1164.15,322.55h49.67c-.18-19.44-10.08-31.46-23.15-33.59v-5.13c16.79,2.48,29,17.15,29,40.66v2.66h-55.51Z" transform="translate(-193.69 -136.67)"/><path class="cls-3" d="M1277.72,283.48a31.47,31.47,0,0,1,21.22,7.61v5.48a29.74,29.74,0,0,0-20.69-8.14c-18,0-32,16.44-32,40.49s14.14,39.06,32,39.06a29.73,29.73,0,0,0,20.69-8.13v5.3a33,33,0,0,1-21.75,7.78c-21,0-36.59-17-36.59-44S1256.69,283.48,1277.72,283.48Z" transform="translate(-193.69 -136.67)"/><polygon class="cls-3" points="1155.03 229.72 1171.12 229.72 1171.12 153.35 1155.03 153.35 1155.03 148.4 1176.78 148.4 1176.78 229.72 1191.45 229.72 1191.45 234.67 1155.03 234.67 1155.03 229.72"/><path class="cls-3" d="M1426,318.13c0-21.21-10.43-29.7-25.81-29.7a27.91,27.91,0,0,0-18.39,6.9V290.2a30.93,30.93,0,0,1,19.45-6.72c17.5,0,30.41,9.55,30.41,33.95v49h41.47v4.95H1426Z" transform="translate(-193.69 -136.67)"/><polygon class="cls-3" points="1280.65 211.74 1286.31 211.74 1286.31 148.4 1264.57 148.4 1264.57 153.35 1280.65 153.35 1280.65 211.74"/><rect class="cls-3" x="1280.48" y="113.94" width="6.01" height="6.21"/><polygon class="cls-4" points="1097.9 106.24 1103.52 106.24 1103.52 48.05 1119.56 48.05 1119.56 43.11 1097.9 43.11 1097.9 106.24"/><rect class="cls-4" x="1097.71" y="0.13" width="6" height="6.11"/><polygon class="cls-4" points="1058.09 106.24 1063.74 106.24 1063.74 0.13 1042.77 0.13 1042.77 5.06 1058.09 5.06 1058.09 106.24"/><path class="cls-4" d="M1066.35,259.94a21.94,21.94,0,0,0,5.11,2.12V238.45h-5.11Z" transform="translate(-193.69 -136.67)"/><path class="cls-4" d="M1126.08,185.6c-1.42-.71-3.71-1.94-5.12-2.12v23.61h5.12Z" transform="translate(-193.69 -136.67)"/><rect class="cls-4" x="1284.88" y="109.88" width="5.99" height="6.19"/><polygon class="cls-4" points="1209.77 129.08 1243.17 129.08 1243.17 124.15 1215.42 124.15 1215.42 43.11 1195.16 43.11 1195.16 48.05 1209.77 48.05 1209.77 129.08"/><polygon class="cls-4" points="1290.87 211.35 1290.87 148.23 1269.2 148.23 1269.2 153.16 1285.23 153.16 1285.23 211.35 1290.87 211.35"/><rect class="cls-4" x="889.18" y="229.45" width="43.18" height="4.75"/><polygon class="cls-4" points="1093.77 129.08 1119.56 129.08 1119.56 124.15 1093.77 124.15 1082.57 124.15 1042.77 124.15 1042.77 129.08 1082.57 129.08 1093.77 129.08"/><path class="cls-4" d="M1374.22,284.9h-60V370c0,27.13-15.33,36.12-33.48,36.12-10.22,0-18.68-1.59-30-7.93v5.29c10.57,6.16,19.2,7.39,30,7.39,21,0,38.94-9.85,38.94-40.87V289.83h48.9v76.11h-16v4.93h36.29v-4.94h-14.62Z" transform="translate(-193.69 -136.67)"/><path class="cls-4" d="M1104.54,303.93h-.17v-19h-21.5v4.93h16V348.2h5.63V323.48c0-22.19,12.51-33.29,26.43-33.29h4.41V284.9h-4.24C1117.23,284.9,1108.08,293.71,1104.54,303.93Z" transform="translate(-193.69 -136.67)"/><path class="cls-4" d="M1385.74,257.82a25.57,25.57,0,0,1-14.16,4.59c-15.33,0-25.72-8.45-25.72-29.6v-53h-20.27v4.94h14.63v48.8c0,24.3,12.86,33.82,30,33.82a29.55,29.55,0,0,0,15.57-4.6Z" transform="translate(-193.69 -136.67)"/><path class="cls-4" d="M1469.77,260.83V211.67c0-24-12.16-33.47-28.54-33.47a30.51,30.51,0,0,0-17.44,5.87v5.06a26.71,26.71,0,0,1,16.37-6c14.11,0,24,8.46,24,29.25v53.37h20.42v-4.92Z" transform="translate(-193.69 -136.67)"/><path class="cls-4" d="M1477.51,365.94h-41.33v-48.8c0-24.31-12.86-33.83-30.31-33.83a30.76,30.76,0,0,0-16.37,5.06v4.95a27.47,27.47,0,0,1,15.32-5.07c15.33,0,25.72,8.46,25.72,29.59v53h69.18v-4.94Z" transform="translate(-193.69 -136.67)"/><path class="cls-4" d="M1301.6,362a29.6,29.6,0,0,1-17.29,5.5c-17.78,0-31.88-15-31.88-38.94s13.93-40.34,31.88-40.34a29.46,29.46,0,0,1,17.29,5.5v-5.27a31.91,31.91,0,0,0-17.81-5.17c-21,0-37,18.32-37,45.28s15.49,43.87,36.45,43.87a33.21,33.21,0,0,0,18.34-5.39Z" transform="translate(-193.69 -136.67)"/><path class="cls-4" d="M1194.74,179.05v5c15,3.44,25.58,18,25.58,38.72,0,20.31-11.11,35.07-25.58,38.69v5c17.81-3.43,31.22-20,31.22-43.69S1213.51,182.31,1194.74,179.05Z" transform="translate(-193.69 -136.67)"/><path class="cls-4" d="M1180.22,261.34c-14.82-3.66-25.07-18.3-25.07-38.57,0-20.08,10.71-34.7,25.07-38.55v-5c-17.53,3.8-30.71,20.25-30.71,43.54,0,23.67,12.24,40.13,30.71,43.6Z" transform="translate(-193.69 -136.67)"/><path class="cls-4" d="M1527.75,260.83V211.67c0-24-12.16-33.47-28.54-33.47a29.42,29.42,0,0,0-19.74,7.43c.56,1.36,1.06,2.77,1.51,4.24a25.58,25.58,0,0,1,17.16-6.74c14.46,0,24,8.46,24,29.25v53.37h20.44v-4.92Z" transform="translate(-193.69 -136.67)"/><path class="cls-4" d="M1155.32,328.41c0-20.22,10.22-34.93,24.85-39v-5.18c-18,4-30.49,20.86-30.49,44.13,0,28.55,15.69,44,40.7,44,10.74,0,20.79-2.29,28.89-8.11v-5.11c-8.63,5.82-18.5,8.29-28.89,8.29C1168.36,367.53,1155.32,353.08,1155.32,328.41Z" transform="translate(-193.69 -136.67)"/><path class="cls-4" d="M1194.69,284.07v5.33c12.15,2.88,21.24,14.36,21.41,32.85h-42.81v4.58h48.63v-2.64C1221.92,301.56,1210.53,287.27,1194.69,284.07Z" transform="translate(-193.69 -136.67)"/><path class="cls-4" d="M1102.12,219.77l-4.41-.7c-13-2.11-25.18-4.58-25.18-17.62,0-12,10.37-18.67,25.53-18.67a55.68,55.68,0,0,1,8.3.88V179a47.38,47.38,0,0,0-8.3-.77c-18.15,0-31.19,8.81-31.19,23.61,0,16.56,14.46,19.55,28.55,21.84l4.58.71c12.87,2.12,24.66,5.1,24.66,18.32,0,13.56-11.44,20.09-27,20.09a66,66,0,0,1-11.73-1v4.44a61.47,61.47,0,0,0,11.73,1.16c18.33,0,32.41-7.92,32.41-24.66C1130.12,225.42,1116.21,222.07,1102.12,219.77Z" transform="translate(-193.69 -136.67)"/></svg>