<svg xmlns="http://www.w3.org/2000/svg" viewBox="0 0 150.1 86.2"><defs><style>.cls-1{fill:#fff;}</style></defs><g id="Layer_2" data-name="Layer 2"><g id="Layer_1-2" data-name="Layer 1"><g id="Layer_2-2" data-name="Layer 2"><g id="Layer_1-2-2" data-name="Layer 1-2"><path class="cls-1" d="M0,32.5H1.6V40L0,39.3Z"/><path class="cls-1" d="M5.2,39.7a19.6,19.6,0,0,0,4.8.5c5,0,8.6-2.1,8.6-6.4s-3.7-5.2-7.9-5.8l-1.4-.2C4.8,27,.2,26,.2,20.8s4.1-7.6,10-7.6a11.8,11.8,0,0,1,3.7.5v1.4a15.5,15.5,0,0,0-3.7-.4c-4.9,0-8.2,2.1-8.2,6s3.9,4.9,8,5.6l1.4.2c4.5.8,9,1.8,9,7.3S15.9,41.7,10,41.7a19.7,19.7,0,0,1-4.8-.6Z"/><path class="cls-1" d="M17.4,14.9l1.7.7v6.8H17.4Z"/><path class="cls-1" d="M25.6,27.4c0-7.7,4.5-13.1,10.4-14V15c-4.9,1-8.6,5.8-8.6,12.5S31,39,36,39.9v1.6C29.8,40.7,25.6,35.3,25.6,27.4Z"/><path class="cls-1" d="M39.6,39.9c4.9-1,8.6-5.8,8.6-12.5S44.6,15.9,39.6,15V13.4c6.2.8,10.4,6.3,10.4,14S45.5,40.6,39.6,41.5Z"/><polygon class="cls-1" points="58.2 1.6 53.4 1.6 53.4 0 60 0 60 33.9 58.2 33.9 58.2 1.6"/><rect class="cls-1" x="53.3" y="39.6" width="24.5" height="1.57"/><polygon class="cls-1" points="72.8 33.9 71 33.9 71 13.7 77.9 13.7 77.9 15.3 72.8 15.3 72.8 33.9"/><rect class="cls-1" x="70.9" width="1.9" height="1.95"/><path class="cls-1" d="M86.5,15.3H81.8V13.7h6.5V30.6c0,6.8,3.3,9.5,8.2,9.5a8.1,8.1,0,0,0,5.6-2.1v1.6A9.6,9.6,0,0,1,96,41.7c-5.4,0-9.6-3-9.6-10.8Z"/><polygon class="cls-1" points="105.7 15.3 101 15.3 101 13.7 107.5 13.7 107.5 39.6 116.4 39.6 116.4 41.2 105.7 41.2 105.7 15.3"/><path class="cls-1" d="M125,24.1c0-6.6-3.2-9.3-7.7-9.3a8.2,8.2,0,0,0-5.5,2.1V15.2a11.3,11.3,0,0,1,5.9-2c5.2,0,9.1,3,9.1,10.7V39.6h4.7v1.6H125Z"/><path class="cls-1" d="M129,16.5a9.6,9.6,0,0,1,7.3-3.3c5.2,0,9.1,3,9.1,10.7V39.6h4.7v1.6h-6.5v-17c0-6.7-3-9.4-7.7-9.4a8.3,8.3,0,0,0-6.4,3A6.9,6.9,0,0,0,129,16.5Z"/><path class="cls-1" d="M10.4,47.6H5.3V46h6.8v6.1h0A8.8,8.8,0,0,1,20.7,46H22v1.7H20.6c-4.4,0-8.4,3.5-8.4,10.6v7.9H10.4Z"/><rect class="cls-1" x="5.3" y="71.9" width="13.8" height="1.52"/><path class="cls-1" d="M35.9,45.7v1.6c-5,1.1-8.5,5.9-8.5,12.6s4.2,12.5,11.2,12.5a17.1,17.1,0,0,0,9.3-2.7v1.7A16.2,16.2,0,0,1,38.6,74c-8,0-13-4.9-13-14.1C25.6,52.2,29.9,46.7,35.9,45.7Z"/><path class="cls-1" d="M31,57.9H46.8c0-6.2-3.2-10-7.3-10.7V45.6c5.3.8,9.2,5.5,9.2,12.9v.9H31Z"/><path class="cls-1" d="M67.2,45.5a9.5,9.5,0,0,1,6.7,2.4v1.8a9.3,9.3,0,0,0-6.6-2.6c-5.7,0-10.1,5.2-10.1,12.9s4.5,12.4,10.1,12.4a9.3,9.3,0,0,0,6.6-2.6v1.7A10.8,10.8,0,0,1,67,74c-6.7,0-11.6-5.4-11.6-14S60.5,45.5,67.2,45.5Z"/><path class="cls-1" d="M101.3,71.9v1.6H89.8V71.9h5.1V47.6H79.3V73.2c0,9.9-5.8,13-12.5,13a17.7,17.7,0,0,1-9.5-2.4V82.2a17.8,17.8,0,0,0,9.5,2.5c5.8,0,10.7-2.9,10.7-11.5V46H96.7V71.9Z"/><path class="cls-1" d="M136.4,71.9v1.6H114.3v-17c0-6.7-3.3-9.4-8.2-9.4a8.4,8.4,0,0,0-5.8,2.2V47.6a9.7,9.7,0,0,1,6.2-2.1c5.5,0,9.7,3,9.7,10.8V71.9Z"/><polygon class="cls-1" points="129.7 66.2 131.5 66.2 131.5 46 124.6 46 124.6 47.6 129.7 47.6 129.7 66.2"/><rect class="cls-1" x="129.7" y="35" width="1.9" height="1.98"/></g></g></g></g></svg>